<?xml version="1.0" standalone="no"?>
<!DOCTYPE svg PUBLIC "-//W3C//DTD SVG 20010904//EN"
 "http://www.w3.org/TR/2001/REC-SVG-20010904/DTD/svg10.dtd">
<svg version="1.0" xmlns="http://www.w3.org/2000/svg"
 width="2730.000000pt" height="4095.000000pt" viewBox="0 0 2730.000000 4095.000000"
 preserveAspectRatio="xMidYMid meet">

<g transform="translate(0.000000,4095.000000) scale(0.100000,-0.100000)"
fill="#000000" stroke="none">
<path d="M0 20475 l0 -20475 13650 0 13650 0 0 20475 0 20475 -13650 0 -13650
0 0 -20475z m16471 15296 c7 11 9 10 9 -5 0 -14 3 -16 13 -7 8 6 17 8 21 4 4
-4 11 -1 16 7 7 12 12 11 29 -5 25 -22 23 -44 -4 -67 -11 -10 -15 -17 -8 -18
6 0 15 5 18 10 4 6 11 8 16 4 5 -3 7 -10 4 -15 -4 -5 -2 -16 3 -25 6 -11 11
-13 16 -5 4 6 2 11 -4 11 -6 0 -8 5 -5 10 4 6 20 -7 36 -30 16 -22 34 -38 39
-35 6 3 10 3 11 -2 0 -4 3 -21 5 -36 4 -25 2 -28 -16 -22 -19 6 -20 5 -8 -14
7 -12 16 -21 20 -21 5 0 8 -9 8 -20 0 -11 -5 -20 -11 -20 -5 0 -8 -4 -5 -9 3
-4 -3 -16 -14 -26 -11 -10 -20 -23 -20 -29 0 -6 9 0 20 14 17 21 21 23 30 10
12 -18 11 -138 -1 -146 -5 -3 -9 7 -9 21 0 15 -4 24 -10 20 -5 -3 -10 -15 -10
-27 0 -16 -3 -18 -14 -9 -19 16 -30 -1 -21 -32 5 -17 4 -19 -4 -7 -6 8 -11 23
-11 33 0 10 -4 16 -9 12 -5 -3 -12 -1 -15 4 -4 5 -1 13 5 17 8 5 9 3 4 -6 -5
-9 -4 -11 3 -6 9 5 9 13 2 27 -8 14 -7 19 1 19 7 0 9 3 6 7 -4 3 -16 -2 -27
-12 -18 -16 -20 -16 -20 -2 0 10 -4 17 -10 17 -5 0 -10 5 -10 10 0 7 6 7 18 1
31 -17 40 3 27 57 -8 28 -9 51 -4 58 6 7 5 21 0 35 -9 23 -16 12 -12 -20 2 -7
-3 -10 -9 -6 -6 4 -9 23 -6 46 3 21 1 39 -5 39 -5 0 -8 6 -6 13 1 7 -6 11 -17
9 -14 -3 -18 1 -13 17 3 12 -1 22 -9 25 -8 3 -14 19 -14 36 0 39 -19 39 -26 0
-4 -16 -13 -35 -20 -41 -12 -10 -13 -9 -8 5 4 10 1 28 -6 42 -12 21 -11 30 5
62 11 22 20 32 23 23 4 -11 6 -11 13 0z m-193 -86 c6 -14 10 -25 8 -25 -2 0
-11 11 -20 25 -9 14 -13 25 -8 25 5 0 14 -11 20 -25z m108 8 c7 -10 13 -22 14
-28 0 -5 -5 -3 -10 5 -8 13 -10 12 -10 -2 0 -10 -4 -18 -10 -18 -5 0 -10 14
-10 30 0 34 7 38 26 13z m-69 -63 c4 -8 5 -20 4 -27 -1 -6 6 -14 16 -16 12 -3
8 -5 -9 -6 -15 0 -30 4 -34 11 -5 7 -3 8 7 3 12 -8 12 -6 0 8 -9 11 -11 26 -6
44 5 18 9 23 12 13 3 -8 7 -22 10 -30z m164 -23 c-10 -9 -11 -8 -5 6 3 10 9
15 12 12 3 -3 0 -11 -7 -18z m-51 -21 c0 -3 -4 -8 -10 -11 -5 -3 -10 -1 -10 4
0 6 5 11 10 11 6 0 10 -2 10 -4z m54 -402 c3 -8 2 -12 -4 -9 -6 3 -10 10 -10
16 0 14 7 11 14 -7z m310 -126 c-3 -11 0 -20 10 -24 9 -3 13 -10 10 -15 -3 -5
2 -19 10 -31 9 -12 16 -29 16 -36 0 -19 -28 -45 -40 -37 -5 3 -10 1 -10 -4 0
-6 -4 -11 -9 -11 -16 0 -17 53 -3 83 11 22 11 31 2 42 -7 8 -10 22 -6 30 3 8
1 15 -4 15 -6 0 -10 10 -10 22 0 21 1 21 20 3 13 -11 18 -25 14 -37z m46 -3
c0 -5 -5 -3 -10 5 -5 8 -10 20 -10 25 0 6 5 3 10 -5 5 -8 10 -19 10 -25z m-65
-45 c3 -5 1 -10 -4 -10 -6 0 -11 5 -11 10 0 6 2 10 4 10 3 0 8 -4 11 -10z m21
-361 c1 -25 -1 -28 -8 -15 -5 10 -7 24 -4 32 8 21 11 17 12 -17z m-11 -50 c11
-17 -1 -21 -15 -4 -8 9 -8 15 -2 15 6 0 14 -5 17 -11z m-53 -161 c-9 -9 -12
-7 -12 12 0 19 3 21 12 12 9 -9 9 -15 0 -24z m48 22 c0 -5 -2 -10 -4 -10 -3 0
-8 5 -11 10 -3 6 -1 10 4 10 6 0 11 -4 11 -10z m-92 -92 c2 -25 0 -29 -8 -18
-12 18 -13 63 -2 56 4 -2 9 -19 10 -38z m92 32 c0 -5 -2 -10 -4 -10 -3 0 -8 5
-11 10 -3 6 -1 10 4 10 6 0 11 -4 11 -10z m30 -43 c0 -5 -4 -5 -10 -2 -5 3
-10 14 -10 23 0 15 2 15 10 2 5 -8 10 -19 10 -23z m-66 -13 c8 -21 8 -24 -3
-24 -5 0 -11 9 -14 20 -6 24 8 27 17 4z m36 -34 c-18 -11 -24 -6 -16 16 5 14
9 15 19 5 9 -9 9 -14 -3 -21z m54 -5 c3 -8 1 -15 -4 -15 -6 0 -10 7 -10 15 0
8 2 15 4 15 2 0 6 -7 10 -15z m-34 -31 c0 -8 -4 -12 -10 -9 -5 3 -10 10 -10
16 0 5 5 9 10 9 6 0 10 -7 10 -16z m-570 -20 c0 -8 -4 -12 -10 -9 -5 3 -10 13
-10 21 0 8 5 12 10 9 6 -3 10 -13 10 -21z m60 -26 c0 -6 -6 -5 -15 2 -8 7 -15
14 -15 16 0 2 7 1 15 -2 8 -4 15 -11 15 -16z m-130 2 c0 -5 -2 -10 -4 -10 -3
0 -8 5 -11 10 -3 6 -1 10 4 10 6 0 11 -4 11 -10z m595 0 c-3 -5 -12 -10 -18
-10 -7 0 -6 4 3 10 19 12 23 12 15 0z m48 -14 c4 -10 1 -13 -9 -9 -15 6 -19
23 -5 23 5 0 11 -7 14 -14z m-3 -43 c0 -7 -5 -13 -11 -13 -5 0 -7 -5 -4 -11 4
-6 13 -8 21 -5 8 3 14 -1 14 -9 0 -8 -4 -15 -10 -15 -5 0 -10 -7 -10 -16 0
-14 2 -15 17 -3 15 13 16 12 10 -10 -4 -17 2 -32 25 -57 34 -37 53 -43 62 -19
3 8 14 15 24 15 14 0 20 -7 20 -25 0 -23 -2 -23 -13 -9 -11 16 -41 11 -31 -5
3 -4 1 -13 -3 -20 -6 -9 -18 -2 -44 24 -21 21 -37 41 -37 45 0 4 -7 11 -16 14
-8 3 -13 10 -9 15 3 5 -3 16 -12 23 -10 7 -19 22 -20 33 -1 11 -5 35 -9 53 -6
32 -6 33 15 20 11 -7 21 -18 21 -25z m-470 0 c0 -19 -3 -24 -10 -17 -6 6 -8
18 -4 27 9 24 14 21 14 -10z m354 12 c3 -8 1 -15 -4 -15 -6 0 -10 7 -10 15 0
8 2 15 4 15 2 0 6 -7 10 -15z m56 5 c0 -5 -5 -10 -11 -10 -5 0 -7 5 -4 10 3 6
8 10 11 10 2 0 4 -4 4 -10z m-519 -43 c-15 -15 -24 -2 -16 24 7 20 8 21 17 5
7 -12 7 -21 -1 -29z m77 24 c3 -8 -1 -12 -9 -9 -7 2 -15 10 -17 17 -3 8 1 12
9 9 7 -2 15 -10 17 -17z m552 -11 c0 -11 -4 -20 -9 -20 -5 0 -7 9 -4 20 3 11
7 20 9 20 2 0 4 -9 4 -20z m-580 -21 c0 -6 -4 -7 -10 -4 -5 3 -10 11 -10 16 0
6 5 7 10 4 6 -3 10 -11 10 -16z m83 6 c-3 -9 -8 -14 -10 -11 -3 3 -2 9 2 15 9
16 15 13 8 -4z m-173 -5 c0 -5 -2 -10 -4 -10 -3 0 -8 5 -11 10 -3 6 -1 10 4
10 6 0 11 -4 11 -10z m112 -12 c-18 -18 -15 -35 9 -57 12 -11 19 -25 16 -33
-4 -9 -6 -7 -6 5 -1 22 -27 22 -39 1 -5 -10 -14 -14 -21 -9 -9 5 -7 13 9 30
18 19 19 23 6 28 -9 4 -24 3 -33 0 -16 -6 -16 -5 -3 8 32 29 90 55 62 27z
m206 -12 c27 5 27 5 6 -13 -16 -14 -20 -27 -16 -56 3 -24 9 -37 19 -37 11 0
14 7 11 25 -3 14 -1 25 3 25 5 0 6 7 3 15 -4 10 0 15 11 15 10 0 15 -6 12 -12
-17 -47 -16 -53 9 -65 23 -11 24 -10 19 10 -5 19 -2 17 19 -8 26 -31 27 -47 1
-25 -12 10 -15 10 -15 -3 0 -23 17 -30 41 -17 19 10 20 9 14 -9 -3 -11 -2 -28
3 -38 5 -10 17 -33 26 -51 10 -17 14 -37 11 -42 -11 -17 -22 -11 -21 11 1 12
-5 24 -13 27 -10 3 -12 0 -8 -12 5 -12 3 -16 -5 -13 -7 2 -13 12 -14 23 -2 38
-4 44 -16 42 -7 -2 -16 17 -21 44 -8 42 -12 47 -33 46 -16 -2 -23 -7 -19 -16
2 -7 -2 -15 -11 -19 -20 -8 -65 17 -56 31 3 6 7 16 7 21 1 6 5 18 9 28 5 11 4
23 -3 30 -8 8 -11 5 -11 -12 0 -12 -4 -19 -10 -16 -17 10 -12 45 7 45 15 0 15
1 0 18 -10 10 -14 22 -10 26 4 3 11 0 15 -9 6 -10 18 -13 36 -9z m402 5 c-14
-28 -13 -44 4 -38 8 3 17 -1 20 -9 3 -8 1 -14 -4 -14 -6 0 -10 -6 -10 -14 0
-16 -27 -29 -35 -16 -3 4 0 10 7 12 21 7 0 41 -22 35 -12 -3 -20 0 -20 7 0 19
34 46 68 55 1 1 -2 -8 -8 -18z m-540 -31 c0 -5 -4 -10 -10 -10 -5 0 -10 5 -10
10 0 6 5 10 10 10 6 0 10 -4 10 -10z m235 -10 c3 -5 1 -10 -4 -10 -6 0 -11 5
-11 10 0 6 2 10 4 10 3 0 8 -4 11 -10z m-165 -28 c0 -25 -16 -46 -28 -38 -8 4
-8 16 0 36 10 31 28 32 28 2z m184 -8 c10 -25 -1 -29 -14 -5 -6 12 -7 21 -1
21 5 0 12 -7 15 -16z m186 -8 c0 -3 -4 -8 -10 -11 -5 -3 -10 -1 -10 4 0 6 5
11 10 11 6 0 10 -2 10 -4z m-440 -10 c0 -2 -7 -9 -15 -16 -13 -11 -14 -10 -9
4 5 14 24 23 24 12z m390 -41 c0 -2 -9 -3 -19 -2 -11 0 -18 5 -15 9 4 6 34 0
34 -7z m-198 -27 c-15 -15 -24 -6 -16 16 5 12 10 14 17 7 8 -8 8 -14 -1 -23z
m293 22 c3 -6 -1 -7 -9 -4 -18 7 -21 14 -7 14 6 0 13 -4 16 -10z m-435 -9 c0
-12 -20 -25 -27 -18 -7 7 6 27 18 27 5 0 9 -4 9 -9z m575 -1 c3 -5 1 -10 -4
-10 -6 0 -11 5 -11 10 0 6 2 10 4 10 3 0 8 -4 11 -10z m-309 -31 c0 -19 -1
-19 -13 -3 -7 10 -13 21 -13 26 0 4 6 5 13 2 7 -2 13 -14 13 -25z m68 -10 c-8
-13 -24 -1 -24 18 0 13 3 13 15 3 8 -7 12 -16 9 -21z m216 21 c0 -5 -5 -10
-11 -10 -7 0 -17 -7 -23 -16 -10 -13 -12 -13 -13 6 -1 11 2 18 8 15 5 -4 9 -1
9 4 0 6 7 11 15 11 8 0 15 -4 15 -10z m-165 -9 c3 -5 1 -12 -5 -16 -5 -3 -10
1 -10 9 0 18 6 21 15 7z m-252 -47 c-5 -13 -8 -12 -24 2 -10 9 -15 22 -12 30
5 13 8 12 24 -2 10 -9 15 -22 12 -30z m197 0 c0 -9 5 -12 12 -8 6 4 8 3 4 -4
-3 -6 -2 -13 4 -17 5 -3 15 6 22 22 11 27 12 27 16 5 2 -15 -4 -29 -20 -41
-13 -11 -23 -29 -23 -42 0 -12 -6 -24 -13 -27 -11 -3 -12 0 -3 16 8 16 8 23
-1 29 -15 9 -20 83 -7 83 5 0 9 -7 9 -16z m100 1 c0 -8 -4 -15 -10 -15 -5 0
-10 7 -10 15 0 8 5 15 10 15 6 0 10 -7 10 -15z m120 1 c0 -17 27 -29 35 -16
11 18 23 10 18 -10 -8 -28 -19 -33 -37 -14 -9 8 -16 10 -16 4 0 -7 -7 -7 -22
1 -14 8 -18 14 -10 17 6 2 12 10 12 18 0 8 5 14 10 14 6 0 10 -6 10 -14z m84
-16 c-6 -6 -10 -3 -10 10 0 13 4 16 10 10 7 -7 7 -13 0 -20z m-163 -12 c-9
-26 -51 -36 -51 -12 0 11 6 13 20 9 14 -5 20 -2 20 9 0 9 4 16 10 16 5 0 6 -9
1 -22z m174 -17 c3 -5 1 -12 -5 -16 -5 -3 -10 1 -10 9 0 18 6 21 15 7z m-478
-28 c-9 -8 -48 8 -42 18 4 5 14 5 26 -2 12 -6 18 -13 16 -16z m367 -19 c-19
-15 -36 -21 -49 -17 -16 4 -14 0 8 -21 20 -18 26 -31 20 -39 -6 -8 -5 -21 2
-35 7 -13 16 -19 19 -14 3 6 2 13 -4 17 -6 4 -7 12 -1 22 6 11 4 21 -5 31 -8
7 -14 17 -14 21 0 12 64 5 68 -8 2 -6 8 -11 13 -11 6 0 7 5 4 10 -3 6 -1 10 5
10 8 0 10 -9 6 -25 -4 -14 -2 -25 4 -25 5 0 10 6 10 13 0 16 59 19 78 4 6 -5
12 -18 12 -28 0 -11 7 -19 15 -19 15 0 20 -12 9 -22 -8 -9 -44 29 -44 47 0 8
-4 15 -10 15 -13 0 -13 -27 1 -35 6 -4 7 -20 3 -38 -5 -26 -4 -30 7 -21 8 6
27 14 42 16 21 4 27 2 23 -8 -7 -18 4 -45 15 -38 5 3 9 -2 9 -10 0 -13 -15
-29 -30 -32 -37 -7 -53 -34 -21 -34 15 0 18 -5 13 -22 -5 -22 -4 -22 15 -6 15
14 22 15 31 6 20 -20 15 -40 -8 -33 -11 3 -20 2 -20 -4 0 -5 -9 -13 -20 -16
-12 -4 -17 -11 -13 -18 8 -13 10 -19 12 -43 2 -23 21 -6 22 19 0 22 0 22 10
-2 5 -14 15 -21 23 -18 11 4 13 -3 9 -31 -4 -32 -1 -38 19 -47 18 -8 22 -17
21 -40 -2 -16 -3 -45 -3 -62 0 -23 -7 -36 -23 -44 -43 -23 -51 -59 -12 -51 14
2 25 8 25 13 0 5 7 9 16 9 10 0 12 -4 7 -12 -4 -7 -6 -22 -4 -32 2 -13 -2 -17
-12 -13 -8 3 -24 -1 -36 -10 -17 -12 -19 -18 -10 -29 9 -11 8 -15 -5 -20 -9
-3 -16 -12 -16 -19 0 -7 -9 -23 -20 -37 -14 -18 -16 -28 -8 -36 8 -8 16 -5 30
11 l19 22 -13 -24 c-10 -19 -10 -25 0 -28 6 -3 12 -9 12 -15 0 -5 -12 -1 -27
10 -47 32 -90 39 -47 8 14 -11 14 -13 -3 -27 -17 -13 -17 -13 -4 6 14 18 13
19 -1 5 -9 -8 -18 -34 -21 -58 -3 -26 -12 -48 -23 -57 -11 -7 -16 -17 -11 -21
9 -9 38 22 54 59 12 26 33 37 33 17 0 -5 -4 -10 -8 -10 -17 0 -30 -45 -20 -65
8 -13 7 -16 -1 -11 -6 4 -11 2 -11 -3 0 -6 -7 -11 -16 -11 -12 0 -15 -6 -11
-21 3 -12 3 -18 0 -15 -4 3 -12 1 -20 -6 -11 -9 -11 -14 3 -29 9 -10 22 -15
30 -12 8 3 14 0 14 -6 0 -7 -7 -14 -16 -18 -17 -6 -54 31 -53 52 3 24 -3 32
-36 49 -19 11 -35 23 -35 27 0 12 36 30 44 22 3 -3 6 3 6 15 0 12 -4 22 -10
22 -5 0 -10 -7 -10 -15 0 -21 -23 -19 -50 5 -13 11 -19 20 -14 20 6 0 15 -5
22 -12 14 -14 19 -10 26 24 4 22 -2 32 -30 53 -20 15 -31 31 -27 38 5 8 8 8
11 -1 2 -7 8 -12 14 -12 6 0 5 6 -2 15 -11 14 -15 14 -33 -2 -11 -10 -17 -13
-14 -6 4 6 2 15 -3 18 -7 5 -5 12 7 21 17 12 16 13 -7 14 -14 0 -34 8 -45 17
-20 15 -20 15 3 10 27 -6 30 13 2 20 -20 5 -29 33 -10 33 6 0 10 7 10 16 0 8
-4 13 -8 10 -11 -7 -9 37 2 45 11 9 -3 31 -15 24 -5 -4 -9 4 -10 17 0 22 -1
22 -9 3 -5 -11 -9 -14 -9 -7 -1 6 -8 12 -16 12 -8 0 -15 2 -15 4 0 2 -3 12 -6
20 -5 12 -2 15 10 10 10 -4 16 -1 16 9 0 11 -8 14 -29 11 -29 -5 -29 -4 -18
20 12 26 27 35 27 15 0 -6 9 -8 21 -4 18 6 20 4 14 -14 -7 -22 9 -29 21 -10 4
8 11 3 20 -12 9 -18 9 -26 1 -31 -9 -6 -9 -8 -1 -8 25 0 34 25 23 64 -6 21 -8
50 -5 65 3 14 3 20 0 14 -9 -20 -22 -15 -30 9 -6 21 -7 21 -20 3 -8 -10 -14
-24 -14 -29 0 -6 5 -4 10 4 8 13 10 13 10 -2 0 -25 -20 -27 -72 -8 -26 10 -49
16 -51 14 -2 -2 -12 4 -21 15 -11 12 -14 21 -7 26 6 3 11 3 11 -2 0 -4 11 -9
25 -9 13 -1 32 -9 41 -18 15 -15 18 -15 40 9 13 14 24 31 24 38 0 12 40 43 51
39 4 -1 4 8 1 20 -4 16 -2 19 8 13 9 -5 11 -4 6 3 -4 7 -14 12 -22 12 -17 0
-18 12 -2 28 7 7 17 8 30 1 33 -17 19 -2 -17 20 -19 11 -35 24 -34 28 3 21 -2
34 -12 28 -6 -4 -8 -13 -5 -21 3 -7 1 -16 -5 -19 -13 -9 -50 37 -44 54 3 7 0
20 -6 27 -8 10 -8 14 -1 14 6 0 9 6 6 14 -7 20 8 27 23 10 8 -8 9 -15 3 -19
-6 -3 -10 -10 -10 -16 0 -5 9 -4 19 3 27 16 37 101 16 130 -15 22 -21 48 -8
35 3 -4 12 1 20 11 13 16 13 15 11 -5 -2 -12 1 -21 6 -20 5 1 13 -9 18 -22 4
-13 11 -22 13 -19 3 2 -1 19 -7 36 -10 25 -10 34 1 44 11 10 14 10 18 1 6 -17
36 -17 31 -1 -5 15 35 39 41 25 2 -5 -9 -20 -25 -33z m-144 -4 c0 -16 -27 -42
-34 -32 -3 6 -2 13 4 17 6 4 8 10 6 14 -3 4 1 8 9 8 8 0 15 -3 15 -7z m269
-12 c9 -15 8 -18 -8 -18 -10 0 -24 7 -32 16 -11 14 -13 14 -22 -1 -7 -13 -11
-14 -24 -3 -14 11 -13 13 6 18 41 9 69 5 80 -12z m-400 -24 c5 3 11 0 14 -7 3
-8 -5 -12 -24 -11 -34 1 -44 8 -34 24 5 8 10 8 20 0 8 -7 18 -9 24 -6z m155
-31 c3 -8 2 -22 -3 -30 -7 -13 -10 -13 -16 -2 -15 23 -15 58 0 53 7 -3 16 -12
19 -21z m-104 2 c-10 -12 -10 -19 -2 -27 15 -15 16 -38 2 -38 -5 0 -10 9 -10
19 0 13 -8 21 -22 23 -22 3 -21 4 7 20 39 21 40 21 25 3z m-120 -25 c0 -5 7
-10 15 -10 8 0 15 -7 15 -15 0 -19 -14 -19 -34 1 -18 18 -21 34 -6 34 6 0 10
-4 10 -10z m179 -6 c2 -2 2 -7 -2 -10 -8 -9 -47 6 -47 17 0 9 37 3 49 -7z
m-95 -40 c10 -25 1 -27 -19 -4 -15 17 -16 20 -3 20 9 0 19 -7 22 -16z m74 -26
c-3 -7 -12 -14 -21 -16 -12 -2 -15 1 -11 12 7 19 38 22 32 4z m-158 -28 c0 -5
-4 -10 -10 -10 -5 0 -10 5 -10 10 0 6 5 10 10 10 6 0 10 -4 10 -10z m30 -20
c0 -5 -7 -10 -16 -10 -8 0 -12 5 -9 10 3 6 10 10 16 10 5 0 9 -4 9 -10z m64
-24 c-3 -14 -10 -23 -15 -21 -4 3 -3 17 3 30 14 31 21 26 12 -9z m63 -9 c17
-10 7 -27 -16 -27 -14 0 -17 6 -13 33 3 17 7 25 10 17 3 -8 11 -19 19 -23z
m463 -29 c0 -13 -23 -5 -28 10 -2 7 2 10 12 6 9 -3 16 -11 16 -16z m-417 -33
c-7 -21 -12 -19 -10 4 0 11 5 18 9 15 4 -3 5 -11 1 -19z m-73 -35 c8 -15 7
-26 -2 -42 -7 -13 -11 -29 -10 -35 2 -7 -1 -13 -5 -13 -14 0 -13 40 0 40 7 0
-1 12 -17 26 -23 21 -26 28 -15 35 22 14 37 11 49 -11z m37 -12 c-3 -8 -6 -5
-6 6 -1 11 2 17 5 13 3 -3 4 -12 1 -19z m73 -1 c0 -7 -9 -23 -20 -35 -11 -12
-20 -24 -19 -27 2 -14 -9 -29 -17 -22 -5 5 -1 21 8 38 9 16 13 29 8 29 -17 0
-11 18 8 23 29 8 32 7 32 -6z m-70 -43 c0 -14 -4 -23 -10 -19 -5 3 -10 15 -10
26 0 10 5 19 10 19 6 0 10 -12 10 -26z m-100 -14 c0 -5 -4 -10 -10 -10 -5 0
-10 5 -10 10 0 6 5 10 10 10 6 0 10 -4 10 -10z m570 -50 c0 -5 -2 -10 -4 -10
-3 0 -8 5 -11 10 -3 6 -1 10 4 10 6 0 11 -4 11 -10z m-505 -70 c3 -5 1 -10 -4
-10 -6 0 -11 5 -11 10 0 6 2 10 4 10 3 0 8 -4 11 -10z m526 -43 c-10 -9 -11
-8 -5 6 3 10 9 15 12 12 3 -3 0 -11 -7 -18z m19 -43 c0 -14 -4 -23 -9 -20 -7
5 -8 23 -2 44 4 12 11 -3 11 -24z m-482 -41 c-2 -10 3 -17 10 -15 12 2 14 -3
14 -38 0 -67 -9 -78 -29 -35 -9 21 -9 25 4 25 23 0 4 20 -20 21 -18 1 -19 2
-4 6 12 3 16 10 13 20 -3 8 -4 19 0 24 9 15 15 10 12 -8z m-28 -3 c0 -5 -2
-10 -4 -10 -3 0 -8 5 -11 10 -3 6 -1 10 4 10 6 0 11 -4 11 -10z m463 -185 c-5
-13 -23 -22 -23 -11 0 15 14 35 21 31 4 -3 6 -12 2 -20z m29 -47 c-12 -12 -25
-18 -29 -14 -4 4 3 16 16 27 31 25 41 15 13 -13z m-345 -25 c-4 -3 -2 -12 4
-19 8 -9 5 -11 -10 -7 -13 3 -21 -1 -24 -14 -3 -10 -4 -4 -2 12 2 17 4 31 4
33 1 1 9 2 18 2 9 0 13 -3 10 -7z m242 -14 c-16 -10 -23 -4 -14 10 3 6 11 8
17 5 6 -4 5 -9 -3 -15z m-182 -16 c0 -7 -4 -13 -7 -13 -4 0 -12 6 -18 13 -8
10 -6 13 7 13 10 0 18 -6 18 -13z m1185 -74 c37 -56 35 -63 -10 -40 -47 24
-78 66 -63 85 6 7 7 17 3 21 -4 5 4 1 18 -8 13 -9 37 -35 52 -58z m-1247 -18
c19 -22 19 -23 1 -20 -11 2 -21 14 -23 28 -2 14 -2 23 -1 20 2 -2 12 -15 23
-28z m240 -10 c3 -5 1 -12 -5 -16 -5 -3 -10 1 -10 9 0 18 6 21 15 7z m-151
-42 c-3 -5 -10 -6 -16 -3 -6 4 -14 1 -18 -6 -5 -9 -9 -9 -14 -1 -4 6 -2 11 4
11 6 0 9 4 6 9 -3 4 6 6 19 3 14 -2 22 -8 19 -13z m-134 -4 c0 -8 -4 -15 -10
-15 -5 0 -10 7 -10 15 0 8 5 15 10 15 6 0 10 -7 10 -15z m40 -49 c-1 -21 -1
-21 -15 -2 -21 27 -20 53 0 36 8 -7 15 -22 15 -34z m111 -6 c6 -16 17 -30 25
-30 8 0 14 -5 14 -10 0 -6 -8 -10 -17 -8 -11 2 -17 -2 -15 -11 3 -12 0 -12
-13 -1 -22 19 -31 4 -11 -19 16 -18 16 -21 1 -50 -14 -28 -13 -35 8 -32 4 0 7
-10 7 -24 0 -36 -27 -21 -34 19 -7 37 0 66 17 66 5 0 2 9 -8 20 -10 11 -24 20
-32 20 -7 0 -13 4 -13 9 0 6 9 8 20 6 25 -5 27 10 3 20 -17 6 -17 7 1 21 11 8
14 14 8 14 -7 0 -12 5 -12 10 0 6 9 10 21 10 13 0 23 -10 30 -30z m-131 -15
c0 -8 -4 -16 -9 -19 -5 -3 -8 5 -8 19 0 14 3 22 8 19 5 -3 9 -11 9 -19z m37
-2 c-4 -3 -1 -13 6 -21 10 -13 9 -14 -12 -3 -19 10 -21 15 -10 22 17 10 25 12
16 2z m-4185 -35 c-17 -17 -15 -33 2 -19 14 12 15 10 7 -28 -1 -2 -7 2 -15 8
-10 9 -15 9 -18 1 -2 -6 -15 -13 -29 -14 -22 -2 -25 0 -21 24 3 23 8 27 32 25
18 -2 31 3 35 13 3 8 8 12 12 8 4 -3 1 -12 -5 -18z m47 -37 c2 -26 -13 -1 -16
27 -2 23 -1 24 7 7 5 -11 9 -26 9 -34z m16 28 c-6 -8 2 -11 23 -8 4 1 6 5 4
10 -1 6 8 4 20 -2 13 -7 25 -12 28 -11 3 1 5 -6 5 -15 -1 -10 -7 -17 -14 -15
-7 1 -20 -3 -28 -9 -11 -10 -15 -8 -20 10 -4 17 -8 19 -14 9 -7 -10 -9 -10
-10 2 0 8 -2 23 -4 33 -2 9 1 15 6 11 5 -3 7 -10 4 -15z m-238 -4 c0 -8 -4
-12 -9 -9 -5 3 -6 10 -3 15 9 13 12 11 12 -6z m63 0 c0 -2 -6 -8 -13 -14 -10
-8 -14 -7 -14 2 0 8 6 14 14 14 7 0 13 -1 13 -2z m310 -20 c-5 -7 -9 -14 -7
-16 1 -2 0 -3 -2 -2 -2 2 -11 -3 -19 -10 -13 -10 -14 -9 -7 3 6 8 10 18 11 23
3 13 4 14 19 14 10 0 12 -4 5 -12z m4018 -21 c0 -13 -5 -21 -10 -18 -5 3 -7
12 -4 20 3 8 -1 14 -9 14 -8 0 -15 4 -15 9 0 5 8 7 19 4 12 -3 19 -14 19 -29z
m-3978 12 c0 -2 -7 -7 -16 -10 -8 -3 -12 -2 -9 4 6 10 25 14 25 6z m4090 -10
c-7 -7 -13 -7 -20 0 -6 6 -3 10 10 10 13 0 16 -4 10 -10z m-3947 -21 c-3 -9
-8 -14 -10 -11 -3 3 -2 9 2 15 9 16 15 13 8 -4z m111 -21 c3 -8 2 -12 -4 -9
-6 3 -10 10 -10 16 0 14 7 11 14 -7z m103 10 c-3 -4 1 -13 9 -22 12 -12 18
-12 24 -3 5 10 9 9 13 -3 4 -9 2 -15 -2 -13 -5 1 -9 -1 -10 -5 -3 -26 1 -30
13 -13 8 11 12 25 9 32 -8 20 11 15 24 -6 10 -16 9 -22 -4 -33 -14 -11 -16
-11 -8 1 6 10 4 12 -5 6 -11 -6 -10 -10 2 -19 15 -11 34 -51 20 -42 -4 3 -13
-4 -20 -15 -7 -11 -8 -19 -2 -19 5 0 10 -4 10 -10 0 -5 -5 -9 -12 -7 -7 1 -13
-8 -14 -19 0 -12 -5 -27 -9 -33 -4 -7 2 -21 14 -32 12 -11 21 -25 21 -31 0 -6
-8 -4 -18 5 -10 10 -21 17 -24 17 -10 0 -15 -48 -7 -62 6 -10 9 -8 10 7 1 11
1 24 0 28 -1 5 4 7 11 4 7 -2 12 -10 10 -17 -2 -10 0 -11 11 -2 8 7 17 9 20 5
7 -6 11 13 8 31 -1 5 4 4 12 -3 9 -6 14 -20 12 -29 -2 -9 -4 -21 -4 -25 -1 -5
-5 -5 -11 -2 -5 3 -10 -3 -10 -14 0 -11 -5 -23 -10 -26 -6 -4 -8 -11 -4 -16 3
-5 1 -16 -5 -23 -9 -11 -8 -18 3 -29 14 -13 14 -16 1 -27 -8 -7 -15 -18 -14
-24 0 -7 2 -6 6 2 2 6 10 9 15 6 6 -4 8 -2 5 3 -4 6 0 13 8 17 20 7 19 -8 0
-24 -11 -9 -13 -16 -5 -24 5 -5 10 -19 10 -30 0 -14 -3 -17 -8 -9 -4 7 -13 9
-21 4 -11 -7 -11 -10 0 -17 8 -5 20 -9 27 -10 20 -3 25 -11 13 -19 -6 -3 -11
-1 -11 6 0 8 -5 7 -17 -2 -9 -8 -14 -9 -10 -3 9 16 -41 31 -83 25 -13 -1 -13
-31 -1 -31 5 0 11 6 14 13 3 8 8 9 13 2 5 -5 7 -9 5 -8 -7 4 -31 -19 -31 -29
0 -6 7 -5 15 2 8 7 16 11 16 9 10 -32 5 -60 -11 -69 -11 -6 -23 -10 -27 -9
-22 4 -33 -3 -33 -18 0 -9 -3 -13 -7 -10 -3 4 -11 2 -18 -3 -6 -5 -20 -11 -31
-13 -10 -1 -26 -7 -34 -12 -8 -5 -27 -8 -42 -6 -18 1 -28 -2 -28 -11 0 -9 -2
-10 -8 -1 -5 8 -12 8 -25 -2 -12 -8 -14 -15 -8 -20 15 -9 14 -35 -2 -35 -10 0
-12 13 -10 48 2 32 0 42 -6 33 -8 -13 -12 -13 -27 0 -12 9 -15 10 -10 1 5 -8
-6 -28 -29 -53 -24 -27 -35 -48 -32 -60 3 -10 2 -19 -1 -20 -15 -2 -38 -8 -57
-15 -20 -7 -20 -7 -1 15 11 12 21 32 23 44 3 20 3 21 -10 3 -7 -10 -27 -19
-44 -19 -20 -1 -29 -6 -26 -14 5 -12 -24 -18 -69 -15 -10 1 -18 -5 -18 -13 0
-7 -4 -17 -10 -20 -6 -4 -7 1 -3 12 6 17 5 17 -14 0 -19 -17 -60 -20 -73 -7
-3 3 -14 10 -25 16 -11 7 -19 20 -17 30 2 17 1 17 -10 3 -7 -8 -21 -18 -31
-22 -16 -6 -16 -5 -1 18 16 24 15 26 -15 54 -16 15 -33 26 -36 23 -3 -3 0 9 6
26 6 18 15 35 20 38 16 9 10 24 -11 24 -16 0 -19 6 -17 45 2 40 3 43 16 27 12
-15 13 -15 7 8 -8 27 -9 34 -5 67 2 16 7 19 15 12 13 -11 13 -26 1 -46 -12
-19 2 -37 18 -23 9 8 12 5 11 -12 0 -13 -5 -26 -10 -30 -15 -10 -16 -38 -1
-38 7 0 15 -7 19 -15 3 -8 2 -14 -2 -14 -17 3 -35 -2 -29 -7 3 -4 2 -15 -3
-25 -6 -10 -6 -20 -2 -23 5 -3 15 6 22 19 7 13 16 22 20 20 4 -3 6 10 3 28
-12 94 -11 132 5 150 9 10 12 18 7 17 -20 -4 -35 0 -35 11 0 5 5 7 11 3 7 -4
10 -1 7 7 -3 8 -1 22 4 32 8 16 7 17 -10 8 -11 -6 -28 -18 -37 -27 -12 -12
-19 -14 -27 -6 -8 8 -4 14 15 23 15 7 27 20 27 31 0 10 5 18 10 18 6 0 10 5
10 10 0 6 -5 10 -11 10 -15 0 -39 -26 -32 -34 4 -3 0 -6 -7 -6 -7 0 -10 -3 -7
-7 4 -3 0 -15 -10 -25 -18 -20 -38 -25 -27 -6 4 7 3 8 -4 4 -17 -10 -15 -46 2
-46 8 0 16 8 18 18 2 12 6 14 11 5 5 -8 0 -19 -12 -30 -11 -9 -17 -21 -14 -26
3 -6 1 -7 -6 -3 -6 4 -9 11 -6 16 3 4 -2 13 -9 20 -8 6 -13 20 -11 31 2 11 1
17 -4 15 -4 -3 -12 -1 -19 3 -8 5 -3 17 19 39 17 17 28 36 24 42 -3 5 -1 10 4
10 6 0 11 5 11 11 0 5 -4 8 -9 5 -5 -4 -8 2 -6 11 4 25 -6 38 -16 22 -6 -10
-9 -10 -9 -2 0 6 -9 10 -19 8 -15 -3 -18 0 -14 13 5 11 8 12 11 3 3 -8 8 -7
18 6 13 17 14 17 8 -2 -5 -16 -4 -17 4 -5 14 19 6 30 -20 25 -11 -3 -18 -2
-14 2 3 3 0 13 -7 21 -10 13 -9 14 3 7 17 -11 33 -13 40 -5 3 3 15 10 28 15
l22 10 -21 13 c-12 8 -18 9 -15 4 3 -6 -1 -13 -10 -16 -15 -6 -15 -4 -2 16 8
13 25 28 37 34 11 6 18 14 14 17 -3 4 2 7 11 7 14 0 17 -7 13 -35 -6 -41 7
-54 25 -26 10 17 13 17 22 5 10 -12 14 -12 36 3 28 20 61 24 73 8 5 -6 6 -2 3
8 -3 10 -6 26 -7 35 -1 11 -4 8 -10 -8 l-8 -25 2 25 c1 14 8 24 15 23 6 -2 12
3 12 10 0 8 4 7 11 -3 8 -12 10 -11 7 5 -2 11 -8 20 -15 20 -6 0 -15 4 -20 8
-4 5 -1 7 7 5 9 -2 14 3 12 13 -1 10 7 19 20 22 21 6 22 5 5 -8 -20 -14 -21
-23 -5 -42 12 -15 2 -47 -12 -38 -5 3 -10 -1 -10 -9 0 -8 5 -18 12 -22 7 -4 8
-3 4 4 -4 7 -2 12 3 12 6 0 11 -4 11 -10 0 -5 7 -7 16 -3 13 5 13 7 2 14 -10
7 -10 9 2 9 13 0 13 1 0 10 -13 9 -13 10 1 10 8 0 20 -5 25 -10 7 -7 11 -6 11
4 0 8 -4 13 -8 10 -4 -2 -10 0 -13 5 -4 5 5 8 19 6 25 -2 25 -1 9 16 -10 11
-14 22 -11 26 4 3 7 1 7 -5 0 -6 10 -9 22 -7 15 3 18 1 11 -6 -6 -6 -9 -19 -6
-29 5 -17 7 -17 29 7 24 26 24 26 24 3 0 -16 -4 -20 -16 -16 -9 3 -12 2 -9 -5
4 -5 4 -17 1 -26 -5 -13 -9 -13 -22 -2 -14 11 -18 10 -30 -6 -9 -12 -14 -14
-14 -5 0 7 -3 10 -7 7 -3 -4 1 -15 9 -24 9 -10 14 -26 13 -35 -2 -10 0 -18 5
-18 5 0 7 18 5 40 -2 22 0 40 5 40 11 0 31 -26 24 -32 -3 -3 0 -9 6 -13 6 -3
10 -3 9 2 -1 4 0 11 1 16 4 11 7 26 9 36 0 6 10 8 20 6 18 -3 22 9 9 30 -3 6
0 19 8 29 11 15 16 17 28 7 11 -9 16 -9 22 0 5 9 10 8 19 -5 15 -20 45 -11 40
13 -4 22 52 43 102 39 27 -3 32 -6 28 -25 -3 -20 -1 -21 16 -10 13 8 18 19 15
32 -4 15 0 21 14 21 15 0 17 -3 7 -15 -10 -12 -9 -13 3 -6 8 5 27 8 43 7 16
-1 26 1 23 6 -2 4 0 14 6 22 8 12 9 12 4 -2 -3 -10 -1 -18 5 -18 5 0 2 -12 -8
-27 -15 -24 -15 -26 -1 -15 12 10 17 10 20 1 3 -8 11 -10 23 -6 17 7 17 9 -3
28 -21 19 -31 46 -13 35 5 -3 11 1 15 9 3 8 9 15 12 15 4 0 5 -3 1 -6z m-776
-18 c-8 -10 -8 -16 2 -25 8 -6 16 -8 20 -5 3 3 4 -2 2 -13 -1 -10 -8 -17 -14
-15 -6 1 -11 -4 -11 -12 0 -8 -4 -18 -10 -21 -6 -4 -7 2 -2 17 12 33 8 54 -8
50 -10 -3 -9 3 4 17 21 23 35 29 17 7z m596 8 c-3 -3 -12 -4 -19 -1 -8 3 -5 6
6 6 11 1 17 -2 13 -5z m3917 -12 c3 -5 -1 -9 -9 -9 -8 0 -12 4 -9 9 3 4 7 8 9
8 2 0 6 -4 9 -8z m-134 -38 c0 -2 -8 0 -19 5 -10 6 -22 7 -26 3 -5 -4 -5 -1
-1 6 5 9 12 9 27 2 10 -6 19 -13 19 -16z m-3483 1 c0 -8 -4 -12 -9 -9 -5 3 -6
10 -3 15 9 13 12 11 12 -6z m3506 -5 c-8 -30 -21 -34 -15 -5 2 14 8 25 12 25
5 0 6 -9 3 -20z m-4426 -5 c0 -8 -4 -12 -9 -9 -5 3 -6 10 -3 15 9 13 12 11 12
-6z m-70 -7 c-2 -7 3 -18 12 -25 14 -10 14 -14 2 -25 -12 -11 -13 -10 -7 6 6
17 5 17 -11 5 -9 -8 -14 -9 -10 -2 4 6 1 13 -5 16 -10 3 -10 7 1 20 16 20 24
22 18 5z m188 -20 c3 1 4 0 3 -1 -7 -9 26 -36 36 -30 6 3 6 0 -1 -8 -7 -7 -13
-24 -13 -37 0 -13 -4 -21 -9 -17 -5 3 -12 1 -15 -4 -5 -8 -34 -8 -43 -1 -4 3
-20 7 -33 9 -5 0 -10 9 -10 19 0 14 2 15 10 2 9 -15 11 -13 14 13 0 6 11 13
23 13 12 1 22 -2 21 -5 -2 -20 3 -31 12 -26 6 4 8 11 4 16 -3 5 -2 8 3 7 4 -2
8 2 8 7 0 6 -3 9 -7 8 -5 -2 -7 2 -5 8 1 6 -4 14 -12 17 -9 3 -11 0 -7 -9 4
-8 1 -6 -7 3 -9 12 -17 14 -24 7 -6 -6 -10 -5 -10 5 0 9 8 13 20 11 14 -3 17
0 13 13 -5 13 -2 12 9 -3 9 -11 18 -19 20 -17z m55 18 c0 -2 -8 -10 -17 -17
-16 -13 -17 -12 -4 4 13 16 21 21 21 13z m-187 -26 c3 -11 1 -18 -4 -14 -5 3
-9 12 -9 20 0 20 7 17 13 -6z m43 -18 c-17 -16 -18 -16 -5 5 7 12 15 20 18 17
3 -2 -3 -12 -13 -22z m204 7 c0 -6 -4 -7 -10 -4 -5 3 -10 11 -10 16 0 6 5 7
10 4 6 -3 10 -11 10 -16z m4244 -11 c7 -5 5 -8 -5 -8 -22 0 -29 9 -21 28 5 13
6 14 10 1 3 -7 10 -17 16 -21z m-184 -10 c0 -18 -2 -20 -9 -8 -6 8 -7 18 -5
22 9 14 14 9 14 -14z m-4382 -16 c10 7 14 8 10 4 -4 -5 -3 -15 2 -21 7 -9 6
-16 -4 -24 -10 -8 -16 -9 -21 -1 -4 6 -3 9 2 8 4 -2 9 2 11 7 1 6 -4 10 -10
10 -7 0 -13 7 -14 15 -1 10 1 10 3 2 4 -11 8 -11 21 0z m996 12 c-6 -3 -8 -18
-5 -37 l5 -32 8 30 c7 28 7 27 3 -5 -6 -47 -10 -58 -20 -67 -4 -4 -5 -3 -2 3
3 6 -5 22 -19 37 -28 30 -29 34 -9 34 8 0 12 -4 9 -9 -3 -4 0 -8 5 -8 14 0 14
27 1 35 -18 11 -11 25 13 24 12 0 17 -3 11 -5z m-934 -20 c0 -8 -19 -13 -24
-6 -3 5 1 9 9 9 8 0 15 -2 15 -3z m4420 -4 c0 -5 -5 -10 -11 -10 -5 0 -7 5 -4
10 3 6 8 10 11 10 2 0 4 -4 4 -10z m-3525 -59 c3 -5 2 -12 -3 -15 -5 -3 -9 1
-9 9 0 17 3 19 12 6z m3440 -11 c3 -5 1 -10 -4 -10 -6 0 -11 5 -11 10 0 6 2
10 4 10 3 0 8 -4 11 -10z m60 -55 c0 -19 -3 -35 -7 -35 -8 0 -8 48 -1 63 7 12
8 8 8 -28z m-56 -12 c0 -25 -1 -25 -8 -8 -5 11 -7 23 -4 28 8 14 13 7 12 -20z
m193 -35 c-8 -8 -9 -4 -5 13 4 13 8 18 11 10 2 -7 -1 -18 -6 -23z m-4571 -25
c7 -10 9 -15 5 -11 -5 4 -15 3 -23 -3 -10 -9 -13 -8 -13 3 0 13 9 28 15 28 2
0 9 -8 16 -17z m-44 -25 c-2 -7 3 -21 11 -31 14 -16 14 -19 -3 -35 -11 -9 -16
-13 -12 -8 3 5 0 14 -9 20 -12 9 -13 17 -5 39 6 15 13 27 17 27 3 0 4 -6 1
-12z m1013 2 c0 -5 -2 -10 -4 -10 -3 0 -8 5 -11 10 -3 6 -1 10 4 10 6 0 11 -4
11 -10z m-1070 -90 c0 -5 -2 -10 -4 -10 -3 0 -8 5 -11 10 -3 6 -1 10 4 10 6 0
11 -4 11 -10z m80 -30 c6 -11 8 -20 6 -20 -3 0 -10 9 -16 20 -6 11 -8 20 -6
20 3 0 10 -9 16 -20z m83 -83 c-4 -7 -8 -16 -8 -21 0 -5 -5 -11 -12 -13 -8 -3
-11 3 -8 16 6 30 15 42 26 35 5 -3 6 -11 2 -17z m-70 -78 c4 -16 3 -18 -9 -8
-7 6 -11 15 -8 20 8 13 11 11 17 -12z m57 -4 c0 -8 -4 -15 -10 -15 -5 0 -7 7
-4 15 4 8 8 15 10 15 2 0 4 -7 4 -15z m-13 -39 c0 -8 -7 -13 -16 -11 -9 1 -15
5 -13 8 1 4 2 11 2 17 0 5 6 7 13 4 8 -3 14 -11 14 -18z m793 -45 c0 -12 -20
-25 -27 -18 -7 7 6 27 18 27 5 0 9 -4 9 -9z m-784 -48 c-1 -25 -26 -48 -26
-23 0 6 -4 9 -8 6 -4 -2 -9 5 -9 17 -2 15 0 18 6 9 7 -11 9 -10 14 2 10 25 24
19 23 -11z m634 21 c0 -8 -19 -13 -24 -6 -3 5 1 9 9 9 8 0 15 -2 15 -3z m1010
-29 c5 3 10 1 10 -4 0 -6 -5 -11 -11 -11 -5 0 -8 -4 -5 -8 2 -4 -3 -8 -13 -9
-12 -1 -17 6 -17 22 0 18 3 22 13 14 6 -6 17 -8 23 -4z m-2716 -47 c-3 -18 -6
-44 -8 -56 -1 -13 -9 -28 -17 -33 -12 -7 -12 -9 1 -9 8 -1 4 -6 -9 -11 -38
-15 -46 2 -25 58 29 79 66 111 58 51z m1100 23 c11 -17 -5 -39 -29 -37 -22 1
-23 7 -2 34 11 14 24 16 31 3z m475 -32 c-22 -13 -31 -11 -17 5 7 8 17 12 22
9 4 -3 2 -9 -5 -14z m-163 -32 c8 3 14 0 14 -6 0 -6 -7 -11 -15 -11 -24 0 -29
-1 -40 -9 -21 -16 -44 -19 -48 -7 -3 7 4 13 16 13 11 1 25 9 30 18 6 12 12 14
19 7 6 -6 17 -8 24 -5z m-356 -7 c0 -5 -2 -10 -4 -10 -3 0 -8 5 -11 10 -3 6
-1 10 4 10 6 0 11 -4 11 -10z m134 -38 c3 -5 -1 -9 -9 -9 -8 0 -12 4 -9 9 3 4
7 8 9 8 2 0 6 -4 9 -8z m-1219 -40 c-15 -10 -12 -38 4 -34 8 2 5 -8 -8 -26
-11 -16 -18 -32 -16 -36 3 -3 2 -4 -2 -1 -10 8 -13 36 -3 30 4 -3 10 2 14 10
3 8 1 17 -5 20 -5 4 -7 11 -4 16 4 5 0 9 -7 9 -9 0 -9 3 2 10 18 11 40 14 25
2z m91 -97 c-1 -8 -5 -17 -8 -21 -5 -4 -4 16 1 34 3 9 9 -1 7 -13z m34 -26 c0
-5 -4 -9 -8 -9 -5 0 -9 7 -9 15 0 8 4 12 9 9 4 -3 8 -9 8 -15z m-303 -6 c0 -9
-4 -10 -14 -2 -7 6 -13 12 -13 14 0 1 6 2 13 2 8 0 14 -6 14 -14z m43 -9 c0
-8 -19 -13 -24 -6 -3 5 1 9 9 9 8 0 15 -2 15 -3z m48 -85 c-18 -12 -30 -11
-23 1 4 6 1 18 -7 27 -10 13 -8 13 15 -2 21 -13 25 -20 15 -26z m6548 -40 c13
-22 7 -90 -9 -107 -9 -9 -19 -13 -23 -9 -8 8 -7 104 1 118 8 12 22 11 31 -2z
m-3825 -548 c-8 -5 -16 -17 -17 -26 -4 -26 -14 -31 -14 -6 0 12 -4 19 -10 16
-5 -3 -7 0 -5 7 3 8 18 15 33 16 19 1 23 -1 13 -7z m14 -21 c3 -5 1 -10 -4
-10 -6 0 -11 5 -11 10 0 6 2 10 4 10 3 0 8 -4 11 -10z m130 -68 c-10 -10 -29
-9 -37 2 -12 17 2 26 23 15 12 -6 18 -14 14 -17z m215 -511 c0 -11 -4 -23 -10
-26 -5 -3 -10 -1 -10 4 0 19 -17 12 -28 -11 l-11 -23 0 23 c-1 12 -6 22 -12
22 -22 0 -4 44 21 50 29 7 50 -9 50 -39z m-360 4 c0 -16 -6 -25 -15 -25 -18 0
-20 21 -3 38 17 17 18 16 18 -13z m89 -7 c11 18 66 11 66 -8 0 -8 -8 -16 -17
-18 -10 -2 -18 2 -18 8 0 6 -12 3 -28 -9 -29 -20 -52 -14 -52 15 0 17 23 24
33 10 5 -8 10 -7 16 2z m3105 -955 c100 -115 110 -129 160 -229 121 -239 148
-572 74 -889 -20 -82 -43 -186 -53 -230 -42 -196 -73 -276 -122 -320 -13 -11
-23 -28 -23 -38 0 -9 -4 -17 -9 -17 -5 0 -20 -28 -34 -62 -38 -94 -40 -101
-38 -125 1 -12 -5 -34 -15 -48 -9 -15 -17 -42 -16 -61 1 -19 -3 -34 -9 -34 -6
0 -7 -4 -4 -10 3 -5 1 -10 -4 -10 -6 0 -11 -11 -11 -24 0 -15 -7 -27 -19 -31
-13 -4 -17 -12 -14 -29 3 -13 1 -26 -5 -30 -5 -3 -9 6 -9 20 0 31 -11 43 -22
25 -9 -14 -3 -53 10 -61 4 -3 4 -12 -1 -20 -6 -10 -10 -7 -15 16 -10 44 -25
71 -40 71 -8 0 -12 -4 -9 -9 3 -4 0 -8 -7 -8 -7 0 -9 -3 -6 -7 4 -3 -3 -11
-15 -17 -12 -6 -30 -29 -42 -51 -11 -22 -27 -45 -36 -52 -12 -9 -13 -17 -4
-42 7 -16 9 -32 6 -36 -15 -14 -7 -30 14 -31 23 -2 27 3 27 38 0 10 4 15 8 12
5 -3 9 -13 9 -22 0 -13 2 -13 15 4 8 10 15 16 15 12 0 -4 23 15 52 43 50 48
66 59 53 39 -3 -5 -1 -10 4 -10 6 0 11 -7 11 -15 0 -8 7 -15 15 -15 8 0 15 5
15 11 0 5 5 7 10 4 6 -3 15 6 20 20 14 38 33 26 45 -27 10 -47 57 -99 70 -79
3 6 11 8 18 5 10 -3 10 -36 -1 -162 -8 -86 -15 -186 -17 -222 -12 -268 -15
-283 -143 -666 -66 -198 -131 -397 -146 -444 -35 -110 -71 -164 -113 -168 -24
-2 -52 11 -129 64 -55 36 -119 83 -143 103 -24 20 -58 47 -76 61 -177 134
-422 331 -504 406 -31 28 -87 77 -126 109 -38 32 -97 82 -130 110 -113 98
-375 287 -511 370 -133 81 -301 135 -422 135 l-45 0 84 78 c169 157 286 259
362 318 43 32 106 81 140 107 74 58 207 148 207 141 0 -3 7 2 16 10 8 9 21 16
28 16 7 0 21 9 31 20 10 12 24 19 31 16 7 -3 20 4 30 15 9 10 25 19 34 19 10
0 29 9 43 20 14 11 32 20 40 20 8 0 32 13 53 28 21 15 53 33 69 40 17 7 45 28
64 47 18 19 46 40 61 47 16 7 27 15 25 19 -3 3 19 19 48 34 29 16 63 39 77 52
82 76 103 93 115 93 8 0 31 17 52 37 21 20 43 36 50 35 6 -1 20 9 31 23 11 14
25 25 31 25 6 0 11 6 11 13 0 14 75 87 90 87 4 0 13 14 19 30 5 17 14 29 18
28 4 -1 18 1 31 6 24 8 28 25 12 44 -6 6 -7 10 -4 7 4 -3 13 3 21 13 13 15 14
15 9 -8 -4 -15 2 -9 13 15 11 22 20 36 20 32 1 -4 10 -3 21 3 15 8 19 17 15
33 -5 17 -4 19 4 7 9 -13 11 -13 11 1 0 9 9 24 20 34 10 9 19 20 18 24 -3 24
6 39 32 54 19 12 30 26 30 41 0 14 10 28 25 36 13 7 28 23 31 34 4 12 15 28
25 37 11 9 19 22 19 28 0 6 7 14 15 17 8 4 15 15 15 26 0 10 16 34 36 52 24
22 39 47 44 72 4 21 17 63 29 93 11 30 28 95 36 145 9 50 21 107 26 126 25 88
20 120 -29 205 -25 44 -49 99 -52 123 -6 39 -5 43 13 40 11 -2 52 -40 91 -85z
m-4863 -673 c32 -127 126 -326 209 -445 27 -38 66 -97 87 -130 66 -106 300
-319 470 -427 28 -18 82 -61 119 -96 38 -35 106 -89 151 -120 401 -279 584
-419 708 -540 139 -135 186 -177 199 -177 17 0 118 -67 111 -73 -3 -3 -56 -4
-118 -3 -225 4 -459 -66 -657 -198 -88 -58 -253 -215 -381 -361 -41 -47 -80
-91 -86 -98 -7 -7 -13 -20 -13 -27 0 -9 -6 -12 -17 -8 -12 5 -15 2 -10 -10 7
-17 -15 -41 -28 -29 -5 4 -5 2 -2 -5 12 -19 -276 -300 -443 -431 -85 -67 -162
-128 -170 -135 -8 -6 -17 -12 -20 -13 -3 0 -17 -6 -32 -13 -31 -16 -110 -7
-128 14 -14 17 -14 38 0 275 7 107 15 407 18 665 7 698 5 848 -13 935 -8 41
-18 141 -20 221 -3 80 -10 168 -15 195 -6 27 -12 63 -15 79 -9 65 -18 101 -29
114 -7 9 -11 88 -11 240 0 216 2 234 33 391 32 162 59 277 69 293 8 14 12 4
34 -83z m4323 -555 c-4 -8 -8 -15 -10 -15 -2 0 -4 7 -4 15 0 8 4 15 10 15 5 0
7 -7 4 -15z m312 -1081 c-3 -20 -36 -41 -36 -23 0 6 8 18 18 25 22 17 21 17
18 -2z m-79 -49 c0 -8 -7 -15 -15 -15 -12 0 -12 3 -2 15 7 8 13 15 15 15 1 0
2 -7 2 -15z m-1156 -1012 c58 -5 65 -8 65 -26 -1 -26 69 -76 107 -77 18 0 27
-5 27 -17 0 -9 3 -13 6 -10 4 4 19 0 33 -7 14 -8 42 -20 61 -27 51 -19 177
-107 200 -140 11 -15 31 -31 43 -35 12 -4 43 -24 68 -45 26 -22 53 -39 62 -39
8 0 43 -23 78 -51 35 -28 74 -56 87 -62 12 -6 22 -15 22 -20 0 -6 3 -7 6 -4 6
6 55 -28 99 -70 11 -11 27 -22 35 -26 19 -9 47 -26 86 -54 43 -30 106 -46 137
-34 14 6 38 29 54 53 36 53 69 156 134 421 17 70 33 126 35 124 5 -5 -23 -380
-42 -552 -8 -77 -19 -183 -24 -235 -5 -52 -14 -135 -19 -185 -6 -49 -12 -135
-16 -190 -6 -112 -40 -534 -55 -695 -5 -58 -12 -145 -15 -195 -3 -49 -10 -130
-16 -180 -5 -49 -14 -148 -19 -220 -25 -318 -51 -651 -60 -775 -6 -74 -20
-234 -31 -355 -11 -121 -26 -292 -34 -380 -44 -494 -64 -660 -73 -607 -4 24
-10 26 -30 13 -11 -7 -9 -13 8 -29 21 -19 23 -30 21 -109 -1 -48 -6 -131 -11
-183 -20 -197 -62 -704 -80 -960 -5 -74 -12 -162 -15 -195 -5 -66 -37 -505
-60 -825 -8 -113 -17 -230 -20 -260 -3 -30 -12 -163 -20 -294 -8 -131 -16
-240 -17 -242 -10 -9 -115 -3 -188 11 -144 27 -261 14 -460 -50 -91 -29 -182
-56 -203 -60 -34 -5 -38 -4 -48 22 -7 19 -7 29 0 31 16 5 13 38 -4 52 -8 7
-13 16 -10 19 16 27 23 243 10 341 -8 59 -9 106 -3 116 3 5 2 17 -1 28 -4 10
-4 41 0 70 3 28 4 55 1 60 -5 9 -14 233 -12 311 0 26 0 64 -1 170 0 11 0 29 0
40 2 33 -7 168 -13 193 -3 13 0 22 7 22 8 0 8 3 2 8 -5 4 -11 61 -13 127 -3
122 -8 220 -12 220 -1 0 -4 65 -6 145 -7 226 -8 244 -17 258 -5 7 -4 12 2 12
7 0 7 8 0 27 -7 18 -6 36 0 56 9 23 7 37 -9 70 -24 49 -24 47 -6 47 19 0 14
109 -6 121 -10 7 -9 9 5 9 12 0 17 8 17 30 0 17 -5 30 -12 30 -9 0 -9 3 0 12
18 18 15 38 -5 38 -14 0 -15 2 -4 9 14 9 25 81 13 81 -13 0 -29 48 -22 61 9
17 1 89 -10 89 -5 0 -6 8 -4 18 2 9 5 34 8 55 3 32 1 37 -18 37 -16 0 -18 2
-7 9 15 10 8 61 -10 61 -6 0 -6 7 1 20 6 11 7 20 3 20 -4 0 -1 5 7 11 12 9 11
10 -6 6 -18 -4 -21 1 -22 26 0 16 -5 33 -9 36 -5 3 -9 17 -9 31 -2 79 -13 220
-18 229 -6 9 -10 60 -21 247 -1 34 -6 76 -10 94 -8 37 -13 107 -16 210 -1 41
-4 79 -7 84 -3 5 -7 32 -8 60 -2 28 -5 67 -8 86 -9 56 -18 169 -21 240 -1 36
-5 112 -9 170 -3 58 -9 193 -11 300 -3 107 -10 241 -15 298 -6 56 -9 106 -6
110 3 5 0 26 -5 48 -6 21 -12 50 -13 64 -1 25 -47 176 -71 235 -7 17 -22 59
-35 95 -12 36 -26 74 -31 85 -5 11 -11 33 -13 49 -3 16 -11 33 -17 37 -6 4 -8
12 -4 18 4 7 1 18 -5 26 -10 12 -10 15 0 15 8 0 9 4 3 13 -5 6 -11 32 -12 57
-1 25 -7 63 -12 85 -9 36 -30 215 -45 385 -3 36 -12 72 -20 81 -8 8 -14 23
-14 32 0 9 -5 17 -11 17 -5 0 -8 4 -5 9 3 4 -3 19 -14 31 -11 13 -20 27 -20
32 0 5 -9 28 -19 51 -42 93 -38 145 20 275 16 35 29 67 29 72 0 6 5 10 10 10
6 0 10 5 10 11 0 28 169 219 194 219 15 0 66 52 66 66 0 7 11 26 25 41 84 94
121 149 104 155 -7 2 -8 18 -4 41 5 24 12 36 20 34 8 -4 10 2 8 17 -6 27 29
59 82 76 22 7 56 21 75 32 19 10 42 16 50 12 8 -3 45 -8 81 -11z m-2083 -98
c11 -13 34 -62 52 -107 18 -46 65 -148 105 -228 40 -80 78 -165 85 -189 6 -24
22 -61 35 -81 l24 -38 -35 -65 c-62 -117 -66 -138 -74 -332 -8 -201 -21 -253
-124 -480 -12 -27 -39 -92 -96 -235 -40 -101 -50 -129 -76 -210 -14 -47 -30
-94 -34 -105 -5 -11 -11 -31 -14 -45 -3 -14 -12 -50 -21 -80 -20 -65 -31 -112
-49 -200 -8 -36 -21 -99 -29 -140 -20 -94 -42 -227 -72 -450 -14 -96 -29 -206
-35 -245 -19 -126 -66 -487 -75 -571 -1 -17 -5 -44 -9 -60 -8 -42 -34 -285
-41 -384 -3 -47 -8 -101 -10 -120 -5 -39 -12 -132 -20 -287 -3 -56 -8 -135
-10 -175 -5 -67 -9 -135 -20 -383 -18 -378 -23 -510 -30 -765 -3 -107 -10
-265 -14 -350 -5 -85 -10 -254 -11 -375 -1 -121 -3 -265 -5 -320 -2 -55 -7
-212 -10 -350 -4 -137 -8 -279 -10 -315 -8 -139 -15 -319 -15 -409 0 -88 -1
-94 -16 -75 -15 18 -15 17 -1 -6 10 -18 12 -32 5 -50 l-9 -25 -15 28 c-8 15
-19 27 -24 27 -12 0 10 52 26 63 10 5 9 14 -2 37 -9 16 -19 32 -25 35 -5 4 -9
17 -9 30 0 13 -6 25 -12 28 -9 3 -7 9 6 19 13 10 15 17 8 22 -6 4 -9 13 -5 21
3 10 -1 15 -13 15 -11 0 -15 4 -9 8 14 10 18 42 5 42 -18 0 -11 30 8 31 9 1
-1 5 -23 9 -29 5 -33 8 -14 9 26 1 46 25 30 35 -5 3 -6 18 -3 32 3 16 1 25 -5
21 -5 -3 -14 3 -21 14 -11 17 -9 19 15 20 18 1 21 3 10 6 -22 6 -12 23 14 23
10 0 19 5 19 10 0 6 -13 10 -30 10 -33 0 -38 11 -14 30 13 12 11 15 -18 29
l-33 15 28 4 c23 3 40 22 19 22 -4 0 -12 10 -17 23 -6 12 -17 21 -25 19 -9 -1
-5 6 8 18 22 18 23 21 8 42 -9 12 -16 17 -16 10 0 -6 -10 -12 -22 -12 -21 0
-21 2 10 28 38 33 39 38 10 45 l-23 6 24 23 24 22 -25 7 c-54 14 -55 28 -3 56
17 10 13 13 -32 19 -51 6 -64 16 -43 29 6 3 10 1 10 -4 0 -6 10 -11 23 -10 21
0 21 1 2 9 -11 5 -14 9 -7 9 7 1 10 6 7 11 -3 6 1 10 10 10 9 0 13 5 9 11 -3
6 -15 9 -25 6 -36 -9 -32 20 4 40 17 9 17 11 3 26 -15 14 -14 16 6 20 17 3 14
5 -10 6 -21 1 -31 -3 -30 -11 2 -8 -6 -12 -21 -10 -54 6 -39 24 26 32 51 6 74
31 26 29 l-28 -1 25 -8 c21 -7 19 -8 -17 -9 -34 -1 -41 2 -37 14 5 11 -1 15
-20 15 -27 0 -35 14 -15 26 6 3 15 1 19 -6 6 -9 12 -9 29 -1 14 8 21 8 21 1 0
-5 5 -10 11 -10 22 0 1 25 -22 27 -41 2 -45 5 -19 13 24 8 24 8 -5 9 -17 1
-36 -4 -43 -11 -9 -9 -12 -9 -12 3 0 9 11 22 25 29 23 12 24 15 9 31 -8 9 -27
20 -42 24 -21 5 -23 8 -11 16 12 8 11 11 -4 20 -14 8 -15 14 -7 24 8 9 7 17
-4 28 -8 8 -12 17 -9 21 4 3 1 6 -6 6 -7 0 -11 6 -8 14 3 8 1 17 -6 20 -7 2
-2 8 11 11 12 4 22 12 22 17 0 5 -5 6 -10 3 -6 -3 -13 1 -16 9 -3 9 -16 16
-28 17 -11 0 -15 3 -8 6 17 7 15 38 -3 53 -17 14 -20 40 -4 40 5 0 8 4 5 9 -4
5 0 12 6 14 7 3 3 6 -9 6 -18 1 -21 6 -17 28 3 15 7 30 10 35 3 4 -2 8 -10 8
-14 0 -24 20 -31 59 -1 9 4 24 13 34 14 16 13 17 -14 17 l-29 1 25 14 25 14
-25 1 c-20 0 -22 2 -10 10 10 6 11 10 3 10 -7 0 -13 11 -13 25 0 14 -4 25 -10
25 -5 0 -10 16 -10 35 0 21 -5 35 -12 36 -9 0 -9 2 1 6 9 4 10 8 3 12 -10 6
-15 36 -27 141 -1 14 -6 33 -10 43 -4 9 -5 24 -1 32 3 8 1 15 -5 15 -6 0 -8 4
-5 9 4 5 2 11 -4 13 -5 1 -12 28 -15 58 -6 59 -12 105 -15 105 -2 0 -8 53 -15
140 -3 33 -9 101 -14 150 -5 50 -12 149 -16 220 -3 72 -8 171 -10 220 -3 50
-7 122 -10 160 -15 221 -27 454 -40 805 -8 217 -19 496 -25 620 -30 689 -36
1530 -15 2090 17 473 33 692 51 710 6 6 37 18 70 27 70 20 134 56 215 121 118
96 218 141 401 181 42 9 80 20 84 24 4 4 16 7 27 7 10 0 39 14 64 30 24 17 46
30 49 30 2 0 39 22 82 48 42 27 111 65 152 84 69 32 76 38 75 64 0 20 7 32 25
41 14 7 21 13 17 13 -5 0 -5 5 -2 10 11 18 43 10 63 -15z m-928 -6936 c0 -5
-4 -9 -10 -9 -5 0 -10 7 -10 16 0 8 5 12 10 9 6 -3 10 -10 10 -16z m155 -609
c3 -5 1 -10 -4 -10 -6 0 -11 5 -11 10 0 6 2 10 4 10 3 0 8 -4 11 -10z m2509
-272 c-5 -7 9 -12 27 -10 3 1 6 -5 6 -12 0 -7 -6 -13 -13 -13 -7 0 -11 4 -8 9
3 4 -1 9 -8 10 -7 0 -17 2 -23 3 -5 2 -14 3 -18 4 -16 2 2 17 22 17 11 0 17
-4 15 -8z m-2394 -447 c0 -5 -9 -7 -20 -4 -11 3 -20 7 -20 9 0 2 9 4 20 4 11
0 20 -4 20 -9z m7 -51 c-3 -11 0 -20 6 -20 6 0 8 -3 4 -6 -3 -4 -13 -4 -22 0
-13 5 -13 9 -3 26 16 25 22 26 15 0z m3398 -279 c22 -15 65 -38 97 -50 55 -22
68 -37 68 -84 0 -16 -12 -17 -145 -15 -80 2 -145 0 -145 -4 0 -4 -100 -6 -222
-4 -204 4 -280 -1 -347 -20 -17 -5 -22 -4 -17 4 4 7 1 12 -8 12 -11 0 -13 6
-6 29 4 16 6 32 3 34 -2 3 0 14 6 25 8 15 6 23 -9 37 -18 16 -24 55 -8 55 4 0
5 14 2 30 -8 36 -9 36 122 11 55 -11 154 -25 221 -32 110 -11 128 -11 175 4
29 9 66 26 83 37 l29 19 30 -30 c17 -17 49 -43 71 -58z m3610 -150 c28 -12 58
-26 69 -32 10 -6 35 -20 55 -31 20 -11 38 -23 41 -27 3 -4 21 -18 40 -31 19
-14 42 -32 52 -40 9 -8 35 -31 58 -50 58 -49 180 -172 180 -182 0 -4 7 -8 15
-8 8 0 15 -4 15 -9 0 -6 18 -30 40 -56 42 -49 113 -164 125 -205 4 -14 16 -43
26 -65 20 -44 89 -253 87 -263 -1 -4 4 -20 11 -37 7 -16 13 -45 14 -62 1 -18
5 -33 10 -33 4 0 7 -11 7 -24 0 -14 5 -37 11 -53 15 -37 20 -241 6 -250 -6 -3
-7 -1 -3 5 4 7 3 12 -1 12 -5 0 -9 12 -9 27 1 16 -3 28 -9 28 -17 0 -36 16
-34 28 4 31 -2 58 -11 52 -5 -3 -10 -1 -10 5 0 8 -42 101 -103 228 -6 12 -46
67 -90 122 -89 112 -221 218 -342 276 -38 18 -63 33 -54 34 25 0 120 -30 146
-47 13 -9 26 -13 30 -9 3 3 -1 33 -10 66 -10 33 -17 68 -17 77 1 34 27 -29 40
-94 7 -35 16 -63 21 -63 4 0 36 -28 70 -62 35 -35 52 -50 38 -33 -13 16 -28
33 -34 37 -6 5 -4 8 5 8 12 1 11 3 -2 11 -10 5 -18 20 -18 32 0 18 -2 19 -11
7 -7 -11 -8 -5 -3 21 6 36 -4 53 -31 54 -5 0 -28 37 -50 82 -39 81 -41 82 -94
100 -33 11 -56 24 -59 35 -2 10 -11 18 -20 18 -8 0 -42 28 -76 61 -33 34 -76
72 -96 85 -19 13 -64 44 -100 69 -36 25 -70 45 -76 45 -6 0 -22 8 -35 18 -37
29 -156 52 -263 52 -53 0 -96 4 -96 9 0 13 142 56 245 75 112 21 237 15 300
-13z m-9779 -366 c0 -6 -28 -40 -64 -77 -35 -36 -73 -79 -83 -95 -27 -40 -89
-170 -89 -186 0 -8 -7 -20 -15 -27 -8 -7 -15 -18 -15 -26 0 -17 -68 -154 -89
-178 -9 -10 -15 -20 -14 -22 3 -4 2 -7 -26 -90 -12 -33 -21 -68 -21 -78 0 -9
-4 -15 -9 -12 -9 6 -14 -11 -27 -94 -3 -25 -15 -66 -25 -91 -10 -26 -15 -56
-12 -68 3 -12 0 -27 -6 -35 -7 -8 -11 -55 -10 -124 1 -60 -2 -115 -6 -121 -3
-6 -6 -127 -6 -269 1 -315 4 -363 40 -562 11 -63 25 -133 31 -155 5 -22 19
-81 30 -132 11 -50 24 -103 30 -117 9 -26 24 -193 22 -251 -1 -26 -24 -122
-40 -165 -3 -8 -6 -18 -6 -22 -1 -4 -7 -13 -13 -19 -7 -7 -13 -19 -13 -26 0
-18 -13 -16 -54 6 -52 29 -62 11 -20 -35 17 -18 22 -30 15 -32 -7 -2 -21 -13
-32 -25 -19 -21 -59 -31 -59 -15 0 4 -5 8 -11 8 -6 0 -8 -8 -4 -19 6 -19 -14
-32 -55 -36 -8 -1 -25 -7 -38 -14 -12 -6 -37 -14 -55 -16 -17 -2 -54 -9 -81
-16 -36 -8 -55 -8 -67 -1 -13 8 -19 8 -21 0 -2 -6 -35 -12 -73 -14 -39 -1
-104 -5 -147 -8 -73 -5 -77 -5 -93 20 -9 14 -30 30 -46 36 -32 11 -41 33 -10
25 25 -6 31 19 13 55 -7 14 -10 39 -8 54 3 16 1 31 -5 34 -5 4 -11 16 -12 28
0 11 -5 18 -9 16 -5 -3 -11 3 -15 13 -4 10 -21 37 -39 60 -17 22 -34 53 -38
67 -3 14 -11 26 -16 26 -6 0 -10 5 -10 10 0 6 7 10 15 10 17 0 20 16 5 25 -14
9 -13 52 2 57 7 3 8 9 3 18 -4 7 -10 33 -12 58 -3 40 -2 44 12 32 23 -19 18
-4 -7 19 -18 18 -20 24 -10 46 7 14 12 46 12 70 0 29 4 45 13 45 6 1 0 8 -15
16 -30 16 -37 34 -14 34 11 0 14 11 12 39 -2 30 0 38 10 34 17 -6 18 11 2 29
-7 7 -14 22 -16 33 -2 11 -5 30 -7 42 -2 13 2 26 8 30 7 4 2 9 -13 13 -18 4
-26 14 -28 34 -2 15 0 26 5 23 4 -3 9 24 9 59 1 54 -1 64 -17 69 -20 7 -26 25
-9 25 7 0 7 6 2 18 -21 40 -35 177 -22 217 5 17 10 62 11 101 2 69 33 238 63
339 78 266 245 626 397 854 97 145 176 221 307 295 171 96 197 105 355 121
239 24 351 28 353 10z m9354 -115 c0 -5 -4 -10 -10 -10 -5 0 -10 5 -10 10 0 6
5 10 10 10 6 0 10 -4 10 -10z m-70 -25 c0 -8 -7 -15 -15 -15 -16 0 -20 12 -8
23 11 12 23 8 23 -8z m59 -109 c13 -72 14 -136 2 -136 -8 0 -15 41 -26 160 -7
79 8 64 24 -24z m591 -16 c0 -5 -5 -10 -11 -10 -5 0 -7 5 -4 10 3 6 8 10 11
10 2 0 4 -4 4 -10z m-203 -160 c-14 -36 -2 -62 33 -70 21 -5 21 -7 6 -19 -9
-7 -16 -17 -16 -22 0 -18 23 -8 56 25 37 37 43 69 19 96 -14 15 -12 17 20 18
19 1 74 -12 123 -29 119 -43 183 -94 312 -251 3 -3 10 -1 16 6 14 15 -24 76
-89 145 -48 51 -37 47 24 -7 77 -68 172 -233 201 -347 7 -27 16 -52 20 -55 16
-12 27 -148 18 -240 -15 -175 -78 -310 -200 -431 -76 -74 -181 -139 -270 -168
-67 -21 -163 -29 -235 -19 -64 9 -121 27 -87 28 7 0 10 5 7 10 -3 6 1 13 11
17 12 4 2 10 -32 19 -63 17 -64 17 -64 -1 0 -20 -15 -19 -35 1 -12 12 -13 19
-5 24 8 5 7 9 -4 13 -8 3 -16 1 -18 -5 -5 -14 -38 -3 -38 13 0 6 7 8 16 5 14
-5 15 -4 4 9 -7 8 -19 15 -26 15 -21 0 -166 150 -193 200 -17 31 -20 41 -9 32
22 -18 78 -11 92 10 8 14 7 23 -3 40 -12 20 -11 24 13 43 14 11 26 24 26 27 0
3 -28 9 -61 13 -47 6 -63 4 -70 -6 -15 -24 -10 -28 29 -23 33 4 35 3 18 -8
-11 -7 -30 -23 -43 -35 -13 -13 -25 -23 -27 -23 -13 0 -66 169 -66 212 0 25 3
27 36 26 37 -1 71 22 60 41 -10 16 -36 13 -36 -4 0 -8 -7 -15 -15 -15 -19 0
-19 5 1 35 14 21 14 24 -3 34 -17 9 -17 11 -1 27 19 20 50 12 42 -11 -7 -19 9
-20 25 -2 8 10 7 18 -3 32 -11 15 -21 17 -58 12 -25 -3 -48 -4 -51 -1 -5 5 1
28 34 144 21 71 28 84 47 88 16 3 15 -13 -3 -48 -17 -33 -4 -49 23 -29 64 49
112 92 112 100 0 5 -11 9 -24 9 -14 0 -31 7 -40 15 -8 8 -20 15 -26 15 -23 0
4 46 62 106 l59 62 23 -22 22 -21 -20 -22 c-20 -24 -17 -27 24 -23 14 1 34 3
45 4 15 1 21 9 23 33 3 28 0 32 -25 35 -36 4 -40 41 -5 46 17 3 22 -2 22 -19
0 -18 2 -19 15 -9 21 17 19 36 -5 53 -19 13 -18 14 18 31 20 10 64 24 97 31
33 8 61 14 62 14 1 1 -4 -13 -10 -29z m53 -20 c-6 -11 -15 -18 -20 -15 -13 8
0 35 16 35 12 0 12 -4 4 -20z m295 0 c3 -5 2 -10 -4 -10 -5 0 -13 5 -16 10 -3
6 -2 10 4 10 5 0 13 -4 16 -10z m55 -35 c14 -16 10 -18 -14 -9 -9 3 -16 10
-16 15 0 14 16 11 30 -6z m48 -37 c16 -16 15 -29 -2 -22 -16 6 -30 34 -18 34
5 0 13 -5 20 -12z m-948 -80 c-12 -29 -28 -66 -35 -83 -7 -16 -21 -54 -30 -82
-9 -29 -20 -55 -25 -58 -5 -3 -7 -12 -3 -20 7 -21 -6 -67 -17 -60 -6 3 -10 -1
-10 -9 0 -9 -4 -16 -10 -16 -27 0 10 172 58 266 32 64 81 129 90 120 2 -3 -5
-29 -18 -58z m998 30 c7 -7 12 -16 12 -20 0 -15 -15 -8 -28 12 -13 22 -3 27
16 8z m55 -81 c-4 -6 -12 -3 -20 8 -20 28 -16 41 7 20 11 -10 17 -22 13 -28z
m-1082 -118 c-9 -22 -10 -22 -10 -3 -1 11 2 24 6 27 12 12 14 0 4 -24z m149
15 c0 -3 -7 -12 -15 -20 -12 -13 -15 -13 -15 -1 0 7 3 17 7 20 8 8 23 9 23 1z
m-223 -186 c-3 -8 -6 -5 -6 6 -1 11 2 17 5 13 3 -3 4 -12 1 -19z m-7 -87 c0
-33 3 -68 6 -78 5 -12 4 -15 -4 -8 -6 6 -12 35 -15 66 -2 30 -7 61 -11 67 -4
7 -1 12 8 12 13 0 16 -12 16 -59z m-70 18 c0 -5 -4 -9 -10 -9 -5 0 -10 7 -10
16 0 8 5 12 10 9 6 -3 10 -10 10 -16z m-44 -25 c8 -33 -9 -52 -31 -34 -18 15
-19 26 -2 45 18 21 26 18 33 -11z m24 -62 c0 -13 -12 -22 -22 -16 -10 6 -1 24
13 24 5 0 9 -4 9 -8z m1445 -235 c-20 -72 -66 -167 -90 -187 -10 -9 -3 14 19
56 20 39 46 103 58 142 27 86 38 77 13 -11z m-1115 -57 c0 -5 -7 -10 -16 -10
-8 0 -12 5 -9 10 3 6 10 10 16 10 5 0 9 -4 9 -10z m-83 -72 c2 -17 0 -19 -7
-8 -5 8 -6 18 -4 22 8 12 10 10 11 -14z m41 -59 c4 -24 3 -24 -12 -4 -19 24
-20 38 -3 33 6 -3 13 -15 15 -29z m47 -47 c5 -12 17 -22 26 -22 23 0 40 -23
29 -40 -7 -11 -17 -4 -49 30 -22 25 -40 49 -41 53 0 16 25 1 35 -21z m-3565
-56 c0 -2 -8 -10 -17 -17 -16 -13 -17 -12 -4 4 13 16 21 21 21 13z m3670 -21
c9 -10 10 -19 4 -25 -13 -13 -49 13 -40 28 10 16 21 15 36 -3z m190 -94 c0
-11 -26 -22 -34 -14 -12 12 -5 23 14 23 11 0 20 -4 20 -9z m-260 -272 c0 -5
-7 -9 -15 -9 -9 0 -12 6 -9 15 6 15 24 11 24 -6z m-9753 -501 c-3 -8 -6 -5 -6
6 -1 11 2 17 5 13 3 -3 4 -12 1 -19z m53 -154 c0 -8 -4 -12 -10 -9 -5 3 -10
10 -10 16 0 5 5 9 10 9 6 0 10 -7 10 -16z m5971 -447 c-10 -9 -11 -8 -5 6 3
10 9 15 12 12 3 -3 0 -11 -7 -18z m4 -146 c-9 -16 -25 -3 -18 15 4 10 9 12 15
6 6 -6 7 -15 3 -21z m135 -57 c0 -2 -7 -4 -15 -4 -8 0 -15 4 -15 10 0 5 7 7
15 4 8 -4 15 -8 15 -10z m-40 -82 c-8 -3 -18 -10 -22 -16 -5 -7 -8 -5 -8 6 0
18 19 29 35 20 5 -3 2 -8 -5 -10z m-45 -52 c-3 -5 -10 -10 -16 -10 -5 0 -9 5
-9 10 0 6 7 10 16 10 8 0 12 -4 9 -10z m30 -130 c-3 -5 -11 -10 -16 -10 -6 0
-7 5 -4 10 3 6 11 10 16 10 6 0 7 -4 4 -10z m-115 -14 c0 -3 -4 -8 -10 -11 -5
-3 -10 -1 -10 4 0 6 5 11 10 11 6 0 10 -2 10 -4z m5 -136 c-3 -5 -11 -10 -16
-10 -6 0 -7 5 -4 10 3 6 11 10 16 10 6 0 7 -4 4 -10z m45 -122 c0 -4 -7 -8
-15 -8 -8 0 -15 -5 -15 -12 0 -9 -3 -9 -11 -1 -6 6 -9 15 -6 20 7 11 47 12 47
1z m30 -13 c0 6 11 11 25 11 33 2 32 -4 -2 -18 -21 -8 -24 -12 -11 -15 15 -4
15 -6 -3 -24 -20 -20 -34 -26 -25 -10 4 5 3 11 -1 14 -5 2 -2 2 5 1 6 -2 12 1
12 6 0 6 -4 10 -8 10 -4 0 -9 10 -9 22 -2 18 0 20 7 8 5 -8 10 -10 10 -5z
m-45 -34 c3 -5 1 -12 -5 -16 -5 -3 -10 1 -10 9 0 18 6 21 15 7z m5 -46 c-13
-15 -5 -39 11 -30 5 4 9 2 9 -4 0 -5 9 -13 20 -16 35 -11 22 -21 -25 -20 -34
2 -45 -1 -41 -11 3 -7 1 -16 -3 -19 -11 -6 -21 18 -21 49 0 26 29 66 49 66 11
0 11 -3 1 -15z m100 -49 c0 -3 -4 -8 -10 -11 -5 -3 -10 -1 -10 4 0 6 5 11 10
11 6 0 10 -2 10 -4z m-42 -55 c26 -2 5 -26 -24 -27 -16 -1 -30 -3 -31 -4 -2
-1 -6 -3 -10 -4 -5 -1 -14 -5 -20 -9 -8 -5 -13 -3 -13 7 0 21 35 43 62 40 13
-1 29 -3 36 -3z m105 1 c2 7 8 10 12 6 12 -12 -5 -28 -31 -28 -23 0 -31 10
-17 23 3 4 12 2 19 -4 8 -7 13 -6 17 3z m-58 -34 c-5 -25 -4 -29 4 -18 15 21
14 8 -2 -29 -13 -31 -13 -31 -32 -11 -11 12 -13 20 -6 20 7 0 10 4 7 9 -8 13
11 61 25 61 7 0 8 -12 4 -32z m-155 18 c0 -2 -7 -6 -15 -10 -8 -3 -15 -1 -15
4 0 6 7 10 15 10 8 0 15 -2 15 -4z m97 -39 c6 -4 10 -15 9 -24 -3 -18 33 -53
54 -53 6 0 8 -4 5 -10 -10 -17 4 -11 27 10 24 22 32 21 23 -3 -4 -8 -18 -18
-32 -22 -21 -5 -24 -10 -20 -33 6 -29 -9 -66 -23 -57 -5 3 -11 1 -15 -5 -3 -5
-1 -10 5 -10 8 0 9 -7 5 -17 -13 -33 -12 -60 2 -60 8 0 12 5 10 11 -3 6 0 22
5 36 7 20 11 22 18 10 8 -12 10 -12 10 4 0 11 3 16 6 13 10 -9 45 13 39 24 -4
5 -11 6 -17 3 -6 -4 -9 -1 -6 7 7 21 58 43 70 31 12 -12 -25 -36 -37 -24 -4 4
-4 -3 -1 -15 5 -17 1 -29 -17 -47 -14 -14 -22 -27 -20 -30 3 -3 -2 -16 -10
-30 -12 -17 -22 -23 -37 -19 -13 4 -20 0 -20 -9 0 -9 10 -14 28 -14 18 1 27
-4 27 -15 0 -9 6 -23 13 -32 11 -13 9 -18 -8 -30 -16 -11 -18 -16 -8 -20 9 -4
8 -6 -3 -6 -9 -1 -19 6 -23 14 -3 8 -11 15 -18 15 -10 0 -10 -2 1 -9 11 -7 10
-13 -5 -36 -15 -24 -18 -25 -27 -10 -6 12 -5 20 4 26 12 7 11 11 -2 25 -15 15
-16 14 -16 -10 0 -14 -8 -32 -17 -41 -22 -22 -21 -23 17 -19 17 1 32 3 32 4 0
1 12 4 27 6 23 4 26 2 21 -12 -5 -13 -3 -15 8 -8 8 5 27 9 42 9 26 0 28 -2 22
-32 -6 -35 9 -47 37 -29 9 6 20 7 24 3 11 -10 -16 -37 -38 -37 -16 0 -19 -5
-13 -29 3 -16 2 -32 -3 -35 -11 -7 -4 -43 10 -52 5 -3 15 -1 23 6 8 7 15 7 19
1 4 -5 2 -12 -4 -16 -5 -3 -10 -14 -10 -24 0 -9 -10 -28 -22 -41 -16 -17 -19
-25 -9 -28 9 -3 10 -7 3 -11 -7 -4 -8 -12 -2 -21 7 -12 12 -11 29 4 11 10 28
16 38 14 14 -2 9 -9 -21 -28 -24 -14 -41 -20 -43 -13 -2 6 -13 9 -24 6 -19 -5
-19 -6 -2 -26 17 -19 17 -20 -2 -10 -28 14 -68 1 -80 -25 -13 -28 -35 -29 -30
-1 6 28 10 31 48 46 l32 11 -27 1 c-16 1 -28 6 -28 11 0 12 11 13 63 11 34 -2
37 0 29 16 -5 10 -8 25 -7 34 3 17 -18 20 -32 4 -4 -4 -3 -5 4 -1 6 3 14 2 18
-4 3 -5 1 -10 -4 -10 -6 0 -11 -6 -11 -13 0 -8 -6 -14 -14 -14 -10 0 -13 8 -9
26 6 36 21 50 45 46 17 -4 19 -2 10 7 -14 14 -44 20 -36 7 5 -8 -9 -13 -29
-10 -4 1 -12 -10 -17 -24 -5 -14 -14 -26 -20 -26 -5 -1 -16 -2 -22 -3 -7 0
-13 -12 -13 -26 0 -15 -7 -26 -17 -28 -14 -3 -18 3 -18 22 0 14 0 29 0 34 0 4
4 7 9 7 5 0 21 10 35 23 15 12 31 22 38 22 6 0 8 3 4 7 -9 10 -126 12 -126 2
0 -4 5 -9 12 -11 7 -3 9 -11 3 -24 -8 -19 -8 -19 -13 1 -2 11 -9 26 -14 33
-13 16 8 43 31 40 16 -3 18 4 6 32 -4 11 4 19 29 28 27 10 36 20 42 45 3 17
13 36 21 42 9 6 11 18 7 29 -4 10 -10 13 -13 8 -8 -13 -99 -23 -107 -11 -3 5
-13 5 -25 -1 -20 -11 -22 -8 -19 28 1 12 -4 22 -11 22 -8 0 -8 4 -1 13 16 19
34 69 22 62 -6 -3 -10 -1 -10 4 0 6 -7 11 -15 11 -8 0 -15 5 -15 10 0 6 7 10
15 10 18 0 19 14 5 41 -8 15 -7 19 5 19 8 0 15 6 15 13 0 9 3 8 9 -2 6 -9 11
-10 15 -2 11 16 -2 31 -27 31 -12 0 -28 4 -36 9 -11 7 -10 12 7 29 13 13 18
28 15 46 -4 19 -1 26 10 26 16 0 43 37 39 53 -1 4 11 10 28 13 23 5 29 11 26
28 -2 12 -10 19 -17 17 -63 -18 -76 -8 -37 28 21 20 42 23 65 8z m-93 -29 c-5
-13 -8 -36 -9 -53 0 -20 -6 -31 -17 -33 -15 -3 -17 2 -11 30 6 31 30 78 40 78
2 0 1 -10 -3 -22z m16 -32 c0 -3 -4 -8 -10 -11 -5 -3 -10 -1 -10 4 0 6 5 11
10 11 6 0 10 -2 10 -4z m310 -25 c0 -12 -21 -19 -37 -13 -22 8 -14 22 12 22
14 0 25 -4 25 -9z m70 -1 c0 -5 -2 -10 -4 -10 -3 0 -8 5 -11 10 -3 6 -1 10 4
10 6 0 11 -4 11 -10z m-40 -64 c0 -3 -4 -8 -10 -11 -5 -3 -10 -1 -10 4 0 6 5
11 10 11 6 0 10 -2 10 -4z m-390 -22 c0 -2 -7 -4 -15 -4 -8 0 -15 4 -15 10 0
5 7 7 15 4 8 -4 15 -8 15 -10z m351 -47 c-10 -9 -11 -8 -5 6 3 10 9 15 12 12
3 -3 0 -11 -7 -18z m-43 -64 c-2 -14 -8 -28 -14 -30 -7 -2 -9 8 -6 27 5 37 25
40 20 3z m69 -30 c-21 -22 -32 -11 -17 17 9 16 15 19 23 11 8 -8 7 -16 -6 -28z
m-7 -38 c0 -8 -9 -15 -20 -15 -17 0 -19 2 -8 15 17 19 28 19 28 0z m-123 -22
c-3 -3 -11 -2 -17 2 -9 6 -9 10 1 16 14 8 27 -7 16 -18z m-249 -57 c-7 -8 -15
-12 -17 -11 -5 6 10 25 20 25 5 0 4 -6 -3 -14z m287 -6 c-22 -5 -44 -4 -49 1
-6 5 10 9 40 8 l49 -1 -40 -8z m114 -47 c22 -6 22 -6 -10 -20 -26 -11 -34 -11
-40 -1 -5 7 -3 16 4 20 15 9 16 9 46 1z m-349 -59 c0 -8 -4 -12 -10 -9 -5 3
-10 10 -10 16 0 5 5 9 10 9 6 0 10 -7 10 -16z m68 -30 c2 -16 0 -26 -4 -22 -4
5 -18 -8 -31 -27 -13 -20 -28 -33 -34 -30 -16 10 -10 33 13 49 18 13 19 16 6
16 -9 0 -20 5 -24 12 -4 6 -3 8 4 4 6 -3 13 -2 17 4 4 6 11 8 16 5 5 -4 9 1 9
10 0 28 25 10 28 -21z m275 -170 c-7 -3 -9 -12 -6 -21 4 -11 2 -14 -5 -9 -18
11 -14 36 6 35 9 0 12 -3 5 -5z m-68 -134 c3 -6 -6 -15 -22 -20 -15 -6 -39
-16 -53 -22 -14 -7 -28 -13 -31 -15 -4 -1 -9 8 -11 22 -4 20 -2 23 12 15 9 -5
22 -5 30 0 8 5 18 6 22 4 5 -3 11 2 14 10 7 18 30 21 39 6z m-180 -30 c3 -5 1
-10 -4 -10 -6 0 -11 5 -11 10 0 6 2 10 4 10 3 0 8 -4 11 -10z m-5 -34 c0 -26
22 -29 40 -6 11 15 19 19 24 11 4 -6 16 -11 27 -11 10 0 19 -7 19 -15 0 -10
-10 -15 -27 -15 -20 0 -24 -3 -15 -12 7 -7 8 -17 1 -30 -5 -10 -7 -18 -3 -18
3 0 0 -8 -7 -17 -10 -11 -10 -14 -1 -9 6 4 12 2 12 -3 0 -6 -9 -11 -21 -11
-15 0 -19 5 -15 15 5 14 -16 21 -53 16 -7 -2 -10 3 -6 9 4 6 13 9 21 6 14 -5
49 22 40 32 -3 3 -19 5 -36 4 -37 -1 -43 8 -27 42 13 28 27 34 27 12z m150
-14 c18 -16 18 -20 5 -38 -13 -17 -14 -17 -16 -1 -2 26 -4 31 -12 45 -12 18 1
15 23 -6z m55 -12 c3 -5 -1 -10 -9 -10 -9 0 -16 5 -16 10 0 6 4 10 9 10 6 0
13 -4 16 -10z m55 -66 c0 -8 -5 -12 -10 -9 -6 4 -8 11 -5 16 9 14 15 11 15 -7z
m-110 -3 c0 -9 -68 -12 -74 -3 -2 4 13 8 35 8 21 1 39 -1 39 -5z m-89 -56 c13
3 25 9 27 15 6 17 19 11 25 -11 5 -17 1 -20 -21 -17 -23 3 -27 -1 -27 -24 0
-14 -4 -30 -9 -35 -5 -5 -6 -3 -2 5 4 7 1 15 -8 18 -8 3 -13 11 -10 18 3 9 -4
11 -24 8 -36 -5 -51 14 -26 33 16 11 21 11 35 -1 8 -7 26 -11 40 -9z m119 -3
c0 -13 -12 -22 -22 -16 -10 6 -1 24 13 24 5 0 9 -4 9 -8z m66 -10 c1 -7 0 -8
-3 -2 -2 5 -9 8 -14 4 -5 -3 -9 0 -9 6 0 15 23 7 26 -8z m-56 -62 c0 -4 -18
-8 -40 -8 -46 -1 -50 5 -14 18 16 6 23 14 18 22 -4 7 2 4 14 -6 12 -11 22 -22
22 -26z m15 30 c3 -5 1 -10 -4 -10 -6 0 -11 5 -11 10 0 6 2 10 4 10 3 0 8 -4
11 -10z m-68 -66 c6 -19 -15 -35 -45 -36 -20 -1 -32 -6 -32 -15 0 -7 4 -13 9
-13 17 0 5 -30 -17 -46 -20 -14 -23 -14 -29 1 -3 10 0 21 8 26 8 4 14 14 15
21 3 34 5 38 25 38 12 0 23 8 26 19 5 19 34 23 40 5z m28 7 c3 -5 1 -12 -5
-16 -5 -3 -10 1 -10 9 0 18 6 21 15 7z m65 -21 c0 -5 -5 -10 -11 -10 -5 0 -7
5 -4 10 3 6 8 10 11 10 2 0 4 -4 4 -10z m-58 -22 c-7 -7 -12 -8 -12 -2 0 14
12 26 19 19 2 -3 -1 -11 -7 -17z m561 -2363 c-5 -13 -23 -22 -23 -11 0 15 14
35 21 31 4 -3 6 -12 2 -20z m756 1 c-3 -23 1 -36 12 -36 7 0 9 9 5 23 -4 18
-1 23 17 25 12 1 33 0 46 -3 22 -6 22 -7 6 -24 -15 -18 -15 -19 2 -17 10 0 21
5 25 11 13 18 19 -2 33 -106 18 -137 21 -187 12 -195 -4 -4 -7 2 -7 14 0 15
-6 22 -20 22 -12 0 -20 7 -20 18 -1 16 -1 16 -11 0 -5 -10 -17 -18 -25 -18
-11 0 -13 -6 -9 -20 5 -17 2 -20 -27 -22 -47 -2 -51 -3 -66 -12 -18 -11 -45 1
-36 15 4 8 3 9 -5 5 -6 -4 -9 -12 -6 -17 4 -5 1 -9 -5 -9 -6 0 -13 7 -16 15
-4 8 -10 13 -15 10 -4 -3 -6 -12 -2 -20 3 -9 -1 -15 -11 -15 -9 0 -16 -4 -16
-9 0 -12 -54 -4 -58 8 -5 16 -22 13 -22 -4 0 -9 -9 -15 -25 -15 -13 0 -28 -6
-32 -13 -10 -15 -93 -38 -93 -26 0 5 -14 9 -32 9 -17 0 -28 -3 -25 -7 4 -3 -4
-12 -17 -19 -22 -10 -43 -13 -113 -15 -29 -1 -345 -29 -383 -34 -61 -8 -478
-10 -486 -2 -4 4 0 7 10 7 9 0 14 5 11 10 -4 6 -11 8 -16 5 -5 -4 -13 4 -18
17 -4 13 -11 22 -15 21 -3 -2 -13 -3 -21 -3 -12 0 -12 3 3 20 13 16 19 18 27
8 8 -10 15 -8 32 9 12 13 19 23 16 23 -3 0 2 9 13 21 10 12 19 24 18 28 0 3 7
5 18 3 13 -2 18 3 18 22 0 18 6 26 18 27 10 0 12 3 5 6 -16 6 -17 53 -2 53 5
0 8 -4 5 -9 -3 -5 1 -12 9 -15 9 -3 18 1 21 9 4 8 10 12 15 9 5 -3 9 0 9 5 0
6 -5 11 -11 11 -5 0 -7 5 -3 11 4 6 20 8 40 4 21 -3 34 -2 34 5 0 5 -15 10
-32 11 -40 1 -29 5 35 14 42 6 47 9 47 31 0 14 7 27 15 31 9 3 23 19 32 36 13
26 17 28 25 14 5 -10 14 -14 20 -11 6 4 8 3 5 -3 -4 -6 0 -13 8 -17 8 -3 17 0
21 6 4 7 3 8 -4 4 -7 -4 -12 -2 -12 5 0 6 8 9 20 6 17 -4 20 -2 15 14 -5 15
-1 19 14 19 22 0 28 -14 11 -25 -16 -10 -12 -25 6 -25 13 0 14 -3 5 -14 -8
-10 -9 -16 -1 -21 5 -3 13 2 17 12 12 31 33 47 46 34 13 -13 54 -15 59 -2 2 4
14 12 27 16 18 5 22 4 16 -5 -5 -9 -4 -11 4 -6 6 4 14 0 17 -8 3 -9 11 -13 17
-9 6 4 8 0 4 -10 -10 -27 1 -19 17 12 9 16 23 31 32 35 19 7 47 -11 38 -25 -3
-5 7 -9 22 -9 22 0 25 3 16 12 -17 17 -15 29 3 22 8 -4 15 -1 15 5 0 6 9 11
20 11 15 0 20 -7 20 -26 0 -23 4 -25 33 -23 41 4 52 9 37 19 -8 5 -10 15 -6
26 7 18 8 18 21 0 8 -10 12 -23 8 -29 -3 -6 10 -6 37 -2 29 5 40 4 36 -3 -4
-7 2 -9 16 -5 13 3 36 5 52 5 20 0 24 3 15 9 -8 5 -9 9 -3 9 6 0 17 -7 24 -15
13 -16 30 -11 30 8 0 7 -4 6 -10 -3 -6 -9 -10 -10 -10 -3 0 20 18 24 34 8 8
-9 18 -16 21 -15 21 1 25 -2 19 -12 -4 -7 6 -2 22 12 16 14 23 18 17 10 -7 -8
-13 -18 -13 -24 0 -5 9 1 20 14 11 13 20 18 20 12 0 -7 4 -12 10 -12 5 0 7 6
4 13 -2 7 3 21 11 32 15 20 16 20 13 0 -2 -12 2 -19 10 -17 6 1 11 -3 10 -10
-2 -6 5 -14 15 -16 9 -2 17 2 17 8 0 19 30 57 45 57 8 0 15 -5 14 -11z m131 4
c0 -5 -5 -10 -11 -10 -5 0 -7 5 -4 10 3 6 8 10 11 10 2 0 4 -4 4 -10z m-991
-21 c-7 -4 -17 -5 -22 -2 -5 3 -3 9 4 14 7 4 17 5 22 2 5 -3 3 -9 -4 -14z
m509 -12 c8 -10 6 -13 -11 -14 -12 0 -16 1 -8 4 11 5 11 7 0 14 -8 5 -9 9 -3
9 6 0 16 -6 22 -13z m-408 -7 c0 -5 -2 -10 -4 -10 -3 0 -8 5 -11 10 -3 6 -1
10 4 10 6 0 11 -4 11 -10z m-430 -90 c0 -5 -4 -10 -10 -10 -5 0 -10 5 -10 10
0 6 5 10 10 10 6 0 10 -4 10 -10z m-200 -610 c0 -5 -4 -10 -10 -10 -5 0 -10 5
-10 10 0 6 5 10 10 10 6 0 10 -4 10 -10z"/>
<path d="M16610 35600 c0 -5 5 -10 10 -10 6 0 10 5 10 10 0 6 -4 10 -10 10 -5
0 -10 -4 -10 -10z"/>
<path d="M16600 35514 c0 -6 9 -28 19 -50 16 -33 21 -36 27 -20 4 10 3 21 -3
25 -5 3 -17 17 -26 31 -9 13 -17 20 -17 14z"/>
<path d="M16660 35375 c0 -8 5 -15 10 -15 6 0 10 7 10 15 0 8 -4 15 -10 15 -5
0 -10 -7 -10 -15z"/>
<path d="M16801 34954 c0 -11 3 -14 6 -6 3 7 2 16 -1 19 -3 4 -6 -2 -5 -13z"/>
<path d="M16852 33700 c0 -14 2 -19 5 -12 2 6 2 18 0 25 -3 6 -5 1 -5 -13z"/>
<path d="M16871 33654 c0 -11 3 -14 6 -6 3 7 2 16 -1 19 -3 4 -6 -2 -5 -13z"/>
<path d="M16840 33645 c0 -8 5 -15 10 -15 6 0 10 7 10 15 0 8 -4 15 -10 15 -5
0 -10 -7 -10 -15z"/>
<path d="M16935 33650 c-3 -5 -1 -10 4 -10 6 0 11 5 11 10 0 6 -2 10 -4 10 -3
0 -8 -4 -11 -10z"/>
<path d="M17039 33623 c-1 -2 -2 -6 -3 -10 -1 -5 -5 -13 -9 -20 -4 -6 -3 -14
3 -18 5 -3 10 0 10 8 0 20 27 29 51 17 11 -6 19 -7 19 -1 0 13 -67 37 -71 24z"/>
<path d="M16820 33605 c-7 -9 -11 -18 -8 -20 8 -9 43 9 46 23 3 17 -23 15 -38
-3z"/>
<path d="M16885 33590 c-3 -6 1 -7 9 -4 18 7 21 14 7 14 -6 0 -13 -4 -16 -10z"/>
<path d="M17056 33572 c-3 -6 -1 -14 5 -17 15 -10 25 3 12 16 -7 7 -13 7 -17
1z"/>
<path d="M16856 33555 c-3 -8 -1 -15 4 -15 13 0 22 18 11 24 -5 3 -11 -1 -15
-9z"/>
<path d="M17085 33530 c-3 -5 -1 -10 4 -10 6 0 11 5 11 10 0 6 -2 10 -4 10 -3
0 -8 -4 -11 -10z"/>
<path d="M17062 33477 c0 -26 3 -36 10 -29 7 7 7 20 0 39 -9 28 -9 27 -10 -10z"/>
<path d="M17110 33490 c0 -5 7 -10 15 -10 8 0 15 5 15 10 0 6 -7 10 -15 10 -8
0 -15 -4 -15 -10z"/>
<path d="M16921 33444 c0 -11 3 -14 6 -6 3 7 2 16 -1 19 -3 4 -6 -2 -5 -13z"/>
<path d="M16987 33440 c-3 -11 -1 -18 4 -14 8 5 13 -10 10 -29 -1 -5 3 -6 9
-2 6 3 7 12 3 18 -4 7 0 6 10 -2 19 -15 23 -41 6 -41 -5 0 -7 5 -3 12 4 7 3 8
-5 4 -16 -10 -4 -26 20 -26 20 0 23 22 10 70 -5 17 -9 21 -15 12 -11 -18 -37
-15 -30 3 4 8 2 15 -4 15 -5 0 -12 -9 -15 -20z"/>
<path d="M16868 33375 c2 -14 9 -25 14 -25 6 0 7 7 4 16 -3 9 -6 20 -6 25 0 5
-4 9 -9 9 -4 0 -6 -11 -3 -25z"/>
<path d="M16965 33390 c-16 -7 -17 -9 -3 -9 9 -1 20 4 23 9 7 11 7 11 -20 0z"/>
<path d="M16960 33361 c0 -10 19 -25 25 -20 1 2 -3 10 -11 17 -8 7 -14 8 -14
3z"/>
<path d="M16910 33336 c0 -9 5 -16 10 -16 6 0 10 4 10 9 0 6 -4 13 -10 16 -5
3 -10 -1 -10 -9z"/>
<path d="M17005 33310 c-4 -6 1 -7 11 -3 13 5 15 3 9 -7 -5 -9 -4 -11 4 -6 6
4 9 12 6 17 -8 12 -22 12 -30 -1z"/>
<path d="M16890 33300 c0 -5 5 -10 10 -10 6 0 10 5 10 10 0 6 -4 10 -10 10 -5
0 -10 -4 -10 -10z"/>
<path d="M17000 33286 c0 -3 5 -17 12 -33 6 -15 11 -31 10 -35 -1 -5 5 -8 13
-8 20 0 20 44 -1 64 -14 15 -34 21 -34 12z"/>
<path d="M17205 33264 c-14 -15 -25 -32 -25 -38 1 -6 9 -1 19 12 11 12 26 22
35 22 9 0 16 7 16 15 0 23 -18 18 -45 -11z"/>
<path d="M17120 33219 c0 -11 4 -18 10 -14 5 3 7 12 3 20 -7 21 -13 19 -13 -6z"/>
<path d="M17160 33178 c0 -11 22 -10 39 1 10 7 7 9 -12 8 -15 -1 -27 -5 -27
-9z"/>
<path d="M16860 33171 c0 -14 18 -23 31 -15 8 4 7 9 -2 15 -18 11 -29 11 -29
0z"/>
<path d="M17160 33150 c0 -5 5 -10 11 -10 5 0 7 5 4 10 -3 6 -8 10 -11 10 -2
0 -4 -4 -4 -10z"/>
<path d="M17145 33069 c-4 -6 -5 -12 -2 -15 2 -3 7 2 10 11 7 17 1 20 -8 4z"/>
<path d="M16885 33050 c3 -5 8 -10 11 -10 2 0 4 5 4 10 0 6 -5 10 -11 10 -5 0
-7 -4 -4 -10z"/>
<path d="M16923 33013 c-23 -9 -14 -20 12 -15 14 2 25 8 25 13 0 10 -17 11
-37 2z"/>
<path d="M16980 32996 c0 -21 -21 -31 -31 -15 -7 11 -9 11 -9 -3 0 -23 14 -30
45 -22 18 4 25 13 25 30 0 15 -6 24 -15 24 -8 0 -15 -6 -15 -14z"/>
<path d="M17075 32950 c-3 -5 -1 -10 4 -10 6 0 11 5 11 10 0 6 -2 10 -4 10 -3
0 -8 -4 -11 -10z"/>
<path d="M16985 32931 c3 -6 1 -11 -4 -11 -6 0 -11 -5 -11 -12 0 -6 3 -8 7 -5
3 4 12 2 18 -3 9 -7 14 -6 18 3 3 7 -4 19 -15 26 -11 7 -17 8 -13 2z"/>
<path d="M17045 32910 c4 -6 11 -8 16 -5 14 9 11 15 -7 15 -8 0 -12 -5 -9 -10z"/>
<path d="M17025 32880 c-3 -5 -1 -10 4 -10 6 0 11 5 11 10 0 6 -2 10 -4 10 -3
0 -8 -4 -11 -10z"/>
<path d="M17060 32872 c0 -12 3 -12 15 -2 8 7 15 13 15 15 0 1 -7 2 -15 2 -8
0 -15 -7 -15 -15z"/>
<path d="M12683 32577 c-3 -5 -1 -13 5 -19 7 -7 13 -4 21 9 8 15 7 20 -5 20
-8 0 -17 -4 -21 -10z"/>
<path d="M12835 32569 c-4 -6 -5 -12 -2 -15 2 -3 7 2 10 11 7 17 1 20 -8 4z"/>
<path d="M12865 32571 c-3 -5 -2 -12 3 -15 5 -3 9 1 9 9 0 17 -3 19 -12 6z"/>
<path d="M13230 32454 c0 -8 5 -12 10 -9 6 4 8 11 5 16 -9 14 -15 11 -15 -7z"/>
<path d="M13080 32451 c0 -5 6 -12 13 -15 10 -5 10 -7 0 -12 -7 -3 -13 -10
-13 -16 0 -6 8 -4 18 5 10 10 24 17 31 17 7 0 9 5 6 10 -4 6 -10 8 -15 5 -5
-3 -11 -1 -15 5 -8 12 -25 13 -25 1z"/>
<path d="M13200 32441 c0 -6 4 -12 8 -15 5 -3 9 1 9 9 0 8 -4 15 -9 15 -4 0
-8 -4 -8 -9z"/>
<path d="M13341 32427 c-13 -21 -12 -21 5 -5 10 10 16 20 13 22 -3 3 -11 -5
-18 -17z"/>
<path d="M13032 32410 c-8 -13 -8 -20 -2 -20 6 0 13 7 17 15 9 24 -1 27 -15 5z"/>
<path d="M13290 32416 c0 -9 7 -19 15 -23 25 -9 27 2 5 22 -18 17 -20 17 -20
1z"/>
<path d="M13362 32418 c-7 -7 -12 -16 -12 -22 0 -5 7 -1 15 10 11 14 14 15 9
3 -7 -23 11 -32 26 -14 22 27 -13 48 -38 23z m29 -21 c-10 -9 -11 -8 -5 6 3
10 9 15 12 12 3 -3 0 -11 -7 -18z"/>
<path d="M12921 32406 c-9 -11 -8 -15 3 -19 10 -4 13 -1 10 8 -5 11 -1 12 19
2 14 -6 22 -14 17 -17 -5 -3 0 -11 11 -19 12 -7 18 -8 14 -2 -3 6 2 11 12 12
14 0 14 2 -4 9 -13 5 -23 14 -23 20 0 6 -5 8 -10 5 -6 -4 -17 -2 -24 4 -10 8
-16 8 -25 -3z"/>
<path d="M13145 32400 c3 -5 8 -10 11 -10 2 0 4 5 4 10 0 6 -5 10 -11 10 -5 0
-7 -4 -4 -10z"/>
<path d="M13060 32381 c0 -6 4 -13 10 -16 6 -3 7 1 4 9 -7 18 -14 21 -14 7z"/>
<path d="M13315 32360 c8 -9 15 -22 15 -28 0 -22 18 -21 34 3 11 17 13 26 4
31 -6 4 -9 3 -5 -2 3 -5 -1 -17 -8 -27 -12 -16 -13 -16 -20 5 -4 13 -7 26 -7
29 1 3 -6 6 -14 6 -12 0 -12 -3 1 -17z"/>
<path d="M13090 32355 c-7 -8 -9 -15 -5 -15 4 0 1 -8 -6 -17 -13 -16 -12 -17
4 -4 9 8 15 16 12 19 -3 3 0 11 6 19 6 7 9 13 6 13 -2 0 -10 -7 -17 -15z"/>
<path d="M12595 32264 c-4 -10 -11 -29 -16 -42 -12 -30 -11 -45 1 -37 6 3 10
15 10 25 0 10 7 26 16 35 12 12 14 19 6 27 -8 8 -13 6 -17 -8z"/>
<path d="M12680 32265 c-11 -13 -10 -14 4 -9 9 3 16 10 16 15 0 13 -6 11 -20
-6z"/>
<path d="M12550 32230 c-9 -6 -10 -10 -3 -10 6 0 15 5 18 10 8 12 4 12 -15 0z"/>
<path d="M12496 32215 c-3 -9 -3 -22 1 -28 4 -7 8 -14 9 -17 2 -12 24 -60 27
-60 9 0 3 36 -7 42 -7 5 -5 8 6 8 21 0 18 20 -9 49 -18 19 -21 20 -27 6z m44
-29 c0 -2 -8 -10 -17 -17 -16 -13 -17 -12 -4 4 13 16 21 21 21 13z"/>
<path d="M12896 32188 c3 -5 9 -7 12 -4 3 3 12 0 21 -6 13 -10 14 -10 4 2 -15
16 -46 23 -37 8z"/>
<path d="M12952 32180 c0 -14 2 -19 5 -12 2 6 2 18 0 25 -3 6 -5 1 -5 -13z"/>
<path d="M13400 32176 c0 -9 -3 -15 -7 -15 -19 3 -23 -2 -11 -14 10 -11 15
-12 25 -1 16 15 17 31 3 39 -5 3 -10 -1 -10 -9z"/>
<path d="M13330 32165 c-7 -9 -8 -15 -2 -15 5 0 12 7 16 15 3 8 4 15 2 15 -2
0 -9 -7 -16 -15z"/>
<path d="M13365 32080 c-3 -5 -3 -10 2 -10 4 0 2 -4 -5 -9 -11 -6 -9 -10 7
-14 17 -4 19 -2 11 13 -5 9 -6 20 -3 24 3 3 4 6 0 6 -3 0 -9 -4 -12 -10z"/>
<path d="M13316 32023 c-6 -14 -5 -15 5 -6 7 7 10 15 7 18 -3 3 -9 -2 -12 -12z"/>
<path d="M12620 32013 c0 -2 7 -11 15 -19 8 -9 15 -11 15 -5 0 6 1 14 3 18 1
3 -6 7 -15 9 -10 1 -18 0 -18 -3z"/>
<path d="M13215 32000 c3 -5 8 -10 11 -10 2 0 4 5 4 10 0 6 -5 10 -11 10 -5 0
-7 -4 -4 -10z"/>
<path d="M13096 31941 c-3 -5 1 -11 9 -15 9 -3 15 0 15 9 0 16 -16 20 -24 6z"/>
<path d="M12660 31895 c-7 -8 -15 -13 -19 -11 -4 3 -8 -10 -9 -27 l-3 -32 18
25 c10 14 18 27 18 30 0 3 4 11 8 18 11 17 2 15 -13 -3z"/>
<path d="M12940 31850 c0 -11 5 -20 10 -20 6 0 10 9 10 20 0 11 -4 20 -10 20
-5 0 -10 -9 -10 -20z"/>
<path d="M13325 31860 c-3 -5 1 -10 10 -10 9 0 13 5 10 10 -3 6 -8 10 -10 10
-2 0 -7 -4 -10 -10z"/>
<path d="M13110 31833 c-17 -37 -20 -53 -9 -53 5 0 9 7 9 16 0 8 4 13 8 10 4
-2 9 9 10 25 3 36 -1 37 -18 2z"/>
<path d="M13275 31850 c-3 -5 -1 -10 4 -10 6 0 11 5 11 10 0 6 -2 10 -4 10 -3
0 -8 -4 -11 -10z"/>
<path d="M13200 31839 c0 -5 5 -7 10 -4 6 3 10 8 10 11 0 2 -4 4 -10 4 -5 0
-10 -5 -10 -11z"/>
<path d="M12881 31724 c0 -11 3 -14 6 -6 3 7 2 16 -1 19 -3 4 -6 -2 -5 -13z"/>
<path d="M12680 31691 c0 -12 6 -21 16 -21 9 0 14 7 12 17 -5 25 -28 28 -28 4z"/>
<path d="M12750 31683 c0 -5 11 -13 25 -19 19 -9 28 -9 42 3 17 13 16 14 -9
10 -16 -2 -28 0 -28 4 0 5 -7 9 -15 9 -8 0 -15 -3 -15 -7z"/>
<path d="M12606 32347 c-16 -12 -16 -14 -3 -14 9 0 18 6 21 14 3 7 4 13 3 13
-2 0 -11 -6 -21 -13z"/>
<path d="M13425 32300 c3 -5 8 -10 11 -10 2 0 4 5 4 10 0 6 -5 10 -11 10 -5 0
-7 -4 -4 -10z"/>
<path d="M12888 18843 c7 -3 16 -2 19 1 4 3 -2 6 -13 5 -11 0 -14 -3 -6 -6z"/>
<path d="M12791 18804 c0 -11 3 -14 6 -6 3 7 2 16 -1 19 -3 4 -6 -2 -5 -13z"/>
<path d="M12848 18783 c6 -2 18 -2 25 0 6 3 1 5 -13 5 -14 0 -19 -2 -12 -5z"/>
<path d="M12858 18763 c-19 -5 -25 -43 -8 -43 6 0 10 6 10 13 0 8 10 19 23 25
22 11 7 14 -25 5z"/>
<path d="M8846 14553 c-6 -14 -5 -15 5 -6 7 7 10 15 7 18 -3 3 -9 -2 -12 -12z"/>
<path d="M9023 14506 c-22 -10 -32 -27 -15 -25 4 1 17 1 30 0 20 -1 21 -4 12
-21 -8 -16 -7 -24 4 -36 20 -19 42 -9 25 12 -9 11 -8 14 5 14 19 0 20 -18 3
-42 -11 -14 -17 -15 -38 -5 -13 7 -24 21 -24 32 0 11 -8 21 -18 23 -22 4 -24
-40 -2 -58 16 -14 21 -35 6 -25 -23 14 -34 -72 -16 -117 6 -14 2 -18 -15 -18
-19 0 -21 -2 -10 -15 7 -9 16 -12 19 -7 11 17 56 6 60 -14 2 -10 9 -23 16 -29
7 -5 18 -31 26 -57 9 -33 19 -48 30 -48 9 0 19 -9 22 -20 3 -11 1 -18 -4 -14
-13 8 -10 -8 5 -28 7 -10 15 -15 18 -12 3 3 8 -5 12 -18 4 -13 29 -41 56 -63
67 -55 104 -127 125 -248 8 -48 25 -88 36 -82 4 3 10 1 14 -5 3 -5 20 -8 36
-5 27 5 30 3 24 -15 -8 -25 16 -27 39 -4 9 8 16 11 16 5 0 -6 9 -11 19 -11 14
0 18 6 15 23 -4 21 -4 21 5 1 12 -27 50 -38 58 -17 4 9 -1 21 -11 28 -14 11
-12 13 16 19 32 6 32 6 11 21 -13 9 -20 23 -18 34 2 13 -4 21 -18 25 -18 5
-20 8 -7 16 10 6 11 10 3 10 -7 0 -13 7 -13 16 0 14 3 14 15 4 12 -10 15 -10
15 2 0 9 -9 15 -22 15 -41 1 -49 3 -44 11 3 5 -5 8 -17 8 -17 -1 -21 4 -19 22
2 19 -2 22 -17 17 -13 -4 -21 1 -26 17 -4 13 -7 28 -6 34 1 7 -5 14 -13 17 -9
4 -12 14 -9 26 4 16 1 21 -15 21 -39 0 -49 -9 -44 -42 4 -23 1 -29 -9 -26 -9
3 -13 17 -11 41 3 30 1 36 -12 31 -9 -3 -16 -1 -16 5 0 6 9 11 20 11 11 0 20
-4 20 -10 0 -5 5 -10 11 -10 6 0 8 7 5 16 -4 12 -2 15 9 11 8 -4 16 -3 19 1 8
13 -19 40 -39 40 -46 -1 -55 3 -55 22 0 11 3 19 8 19 29 -5 31 4 6 30 -16 18
-33 27 -42 23 -11 -4 -14 -1 -9 12 4 9 3 15 -1 13 -4 -3 -14 2 -22 11 -13 14
-12 15 4 9 17 -7 17 -6 5 10 -12 15 -12 16 5 10 16 -6 17 -5 6 8 -7 8 -9 15
-4 15 5 0 2 5 -6 10 -11 7 -11 10 -2 10 7 0 11 4 7 10 -3 5 -11 7 -18 4 -7 -2
-17 4 -24 15 -10 16 -9 24 7 44 24 30 26 45 5 27 -10 -8 -15 -9 -15 -2 0 6 -7
9 -15 6 -8 -4 -15 -1 -15 5 0 6 8 11 18 11 11 0 18 8 19 22 2 16 0 19 -6 9 -6
-9 -16 -11 -32 -5 -13 4 -27 7 -31 6 -12 -3 -29 36 -32 76 -2 20 -8 37 -12 37
-5 0 -21 9 -37 19 -21 15 -25 21 -16 32 9 11 8 14 -7 13 -11 -1 -29 -6 -41
-13z m14 -234 c7 -8 11 -17 8 -21 -10 -9 -35 30 -34 53 1 20 2 20 6 2 3 -11
12 -26 20 -34z m183 -22 c0 -5 -7 -10 -15 -10 -8 0 -15 5 -15 10 0 6 7 10 15
10 8 0 15 -4 15 -10z m187 -382 c-3 -7 -5 -2 -5 12 0 14 2 19 5 13 2 -7 2 -19
0 -25z m193 -218 c0 -3 -9 -11 -19 -17 -15 -10 -20 -9 -24 1 -3 8 -4 16 -2 18
6 6 45 4 45 -2z"/>
<path d="M8956 14367 c3 -10 9 -15 12 -12 3 3 0 11 -7 18 -10 9 -11 8 -5 -6z"/>
<path d="M9281 14274 c0 -11 3 -14 6 -6 3 7 2 16 -1 19 -3 4 -6 -2 -5 -13z"/>
<path d="M9295 14160 c3 -5 8 -10 11 -10 2 0 4 5 4 10 0 6 -5 10 -11 10 -5 0
-7 -4 -4 -10z"/>
<path d="M8963 14143 c-15 -5 -17 -23 -4 -23 5 0 11 7 15 15 3 8 4 15 3 14 -1
0 -8 -3 -14 -6z"/>
<path d="M8980 14123 c0 -5 9 -19 20 -33 11 -14 20 -35 20 -47 0 -12 4 -25 10
-28 5 -3 15 -25 21 -48 6 -23 16 -48 22 -56 10 -11 13 -9 18 10 l6 24 11 -27
c11 -28 52 -41 52 -17 0 17 -62 129 -71 129 -5 0 -9 11 -9 24 0 15 -7 27 -19
31 -10 3 -29 14 -41 25 -24 21 -40 26 -40 13z"/>
<path d="M9041 13884 c0 -11 3 -14 6 -6 3 7 2 16 -1 19 -3 4 -6 -2 -5 -13z"/>
<path d="M9060 13859 c0 -5 -4 -8 -9 -4 -5 3 -22 -11 -37 -30 -25 -33 -26 -40
-22 -113 2 -42 9 -86 15 -97 6 -11 18 -36 27 -55 32 -71 63 -115 82 -116 10
-1 22 -3 27 -4 4 -1 11 -3 16 -4 5 0 18 -12 28 -25 l20 -24 16 23 c8 12 20 19
25 16 6 -3 12 1 16 9 3 8 16 20 29 26 27 12 31 34 31 164 1 49 -4 88 -12 100
-12 18 -13 17 -8 -11 4 -25 1 -33 -12 -36 -24 -7 -59 6 -44 16 9 5 5 18 -14
44 -27 37 -106 106 -124 108 -6 1 -17 2 -26 3 -8 0 -12 6 -9 11 3 6 1 10 -4
10 -6 0 -11 -5 -11 -11z m123 -134 c21 -43 21 -45 2 -45 -8 0 -15 -7 -15 -15
0 -25 -38 -17 -72 15 -19 17 -25 27 -15 24 15 -6 17 -3 12 19 -5 19 -2 26 12
30 46 12 59 7 76 -28z m83 -130 c13 18 14 18 14 -6 0 -34 -11 -47 -38 -44 -26
2 -42 20 -42 48 0 17 1 17 26 0 25 -16 27 -16 40 2z"/>
<path d="M9520 13864 c0 -5 7 -18 15 -28 8 -11 15 -16 15 -10 0 5 -7 18 -15
28 -8 11 -15 16 -15 10z"/>
<path d="M9520 13800 c0 -5 5 -10 11 -10 5 0 7 5 4 10 -3 6 -8 10 -11 10 -2 0
-4 -4 -4 -10z"/>
<path d="M9565 13790 c-3 -5 1 -10 10 -10 9 0 13 5 10 10 -3 6 -8 10 -10 10
-2 0 -7 -4 -10 -10z"/>
<path d="M9703 13583 c-7 -2 -13 -11 -13 -19 0 -12 4 -12 20 -2 31 20 26 35
-7 21z"/>
<path d="M9617 13531 c-3 -12 1 -22 10 -25 23 -9 25 -8 21 16 -4 28 -24 34
-31 9z"/>
<path d="M9725 13470 c3 -5 8 -10 11 -10 2 0 4 5 4 10 0 6 -5 10 -11 10 -5 0
-7 -4 -4 -10z"/>
<path d="M20327 16092 c-22 -3 -27 -7 -22 -22 4 -11 -4 -35 -20 -59 -30 -49
-30 -51 -5 -51 11 0 29 -5 39 -12 10 -6 26 -8 35 -5 20 8 38 51 30 72 -9 23
-24 18 -24 -8 0 -30 -6 -36 -31 -30 -25 7 -24 20 7 64 31 45 29 55 -9 51z"/>
<path d="M20479 15869 c-11 -11 -18 -27 -15 -36 3 -8 6 -30 6 -49 0 -27 5 -37
25 -46 32 -14 77 13 75 45 -1 12 1 32 5 45 6 18 10 20 22 11 11 -10 13 -9 11
2 -2 8 3 13 10 11 10 -2 11 2 4 14 -7 12 -26 18 -66 20 -47 2 -61 -1 -77 -17z
m66 -24 c0 -14 -6 -19 -20 -17 -26 5 -29 8 -21 27 8 23 41 14 41 -10z m-15
-70 c10 -13 9 -15 -8 -15 -22 0 -36 13 -25 24 10 10 20 7 33 -9z"/>
<path d="M20632 15811 c-9 -5 -11 -17 -6 -37 l8 -29 8 34 c10 37 8 43 -10 32z"/>
<path d="M20651 15743 c-10 -11 -11 -20 -3 -36 8 -17 11 -18 11 -5 1 9 6 18
13 20 7 3 8 10 2 20 -8 14 -11 14 -23 1z"/>
<path d="M20673 15673 c-7 -3 -13 -14 -13 -25 0 -18 1 -18 16 -4 18 18 16 35
-3 29z"/>
<path d="M20671 15593 c-1 -16 3 -20 19 -16 11 3 17 9 14 14 -3 5 -9 7 -14 4
-4 -3 -11 1 -13 7 -3 7 -6 3 -6 -9z"/>
<path d="M20595 15559 c-57 -51 -45 -119 22 -119 18 0 93 67 93 83 0 16 -30 6
-30 -10 -1 -17 -1 -17 -14 0 -8 10 -23 19 -34 20 -20 1 -20 1 -1 29 27 37 8
36 -36 -3z m45 -68 c0 -17 -27 -37 -37 -27 -7 7 17 46 27 46 6 0 10 -9 10 -19z"/>
<path d="M20052 15558 c-20 -20 -14 -56 15 -82 19 -18 34 -52 53 -118 15 -51
26 -95 24 -97 -1 -2 -30 -4 -64 -6 -66 -3 -75 -7 -67 -28 6 -15 114 -16 138
-2 9 6 11 3 6 -9 -4 -10 -7 -19 -7 -22 0 -2 -7 -1 -16 3 -13 5 -15 1 -10 -18
l7 -24 -13 23 c-11 17 -16 20 -26 10 -7 -7 -12 -8 -12 -2 0 10 -10 12 -65 13
-39 1 -67 -3 -82 -12 -6 -4 -14 -3 -18 3 -11 18 -25 11 -25 -14 0 -20 6 -24
38 -28 52 -4 70 0 75 20 4 15 5 15 6 -1 1 -12 9 -17 29 -17 155 -1 143 7 186
-125 20 -63 41 -117 47 -120 8 -6 24 10 77 74 11 14 12 11 7 -16 -4 -22 -3
-33 5 -33 6 0 8 -6 4 -12 -4 -7 -4 -10 1 -6 4 4 14 3 22 -4 18 -15 27 -4 15
19 -7 13 -7 25 1 38 6 11 12 39 13 63 1 34 -2 42 -14 40 -8 -2 -20 -19 -27
-37 -9 -27 -14 -32 -20 -20 -5 7 -8 24 -6 37 1 14 -3 22 -12 22 -10 0 -22 -21
-33 -55 -9 -31 -20 -52 -24 -48 -14 15 -52 154 -46 169 3 8 14 14 23 12 12 -2
19 4 21 18 3 18 -4 23 -35 31 -34 8 -40 14 -55 58 -40 122 -67 209 -64 213 2
2 30 -17 63 -41 75 -57 217 -147 231 -147 18 0 14 25 -5 42 -31 27 -227 155
-248 162 -11 3 -29 23 -40 43 -21 40 -51 53 -73 31z"/>
<path d="M20681 15444 c0 -11 3 -14 6 -6 3 7 2 16 -1 19 -3 4 -6 -2 -5 -13z"/>
<path d="M20650 15299 c0 -5 5 -7 10 -4 6 3 10 8 10 11 0 2 -4 4 -10 4 -5 0
-10 -5 -10 -11z"/>
<path d="M20471 15283 c-26 -22 -39 -86 -21 -108 15 -18 61 -20 78 -3 9 9 12
9 12 0 0 -24 30 -11 56 24 20 26 24 38 15 43 -8 5 -10 18 -5 35 6 24 4 27 -12
24 -10 -2 -21 -14 -24 -27 l-6 -24 -17 26 c-20 31 -46 34 -76 10z m49 -39 c0
-34 -17 -64 -37 -64 -12 0 -14 7 -10 36 10 62 47 84 47 28z"/>
<path d="M20630 15240 c0 -5 5 -10 11 -10 5 0 7 5 4 10 -3 6 -8 10 -11 10 -2
0 -4 -4 -4 -10z"/>
<path d="M20601 15172 c-8 -14 -6 -18 10 -18 10 0 19 6 19 13 0 21 -19 24 -29
5z"/>
<path d="M19807 15032 c-10 -31 -20 -63 -23 -69 -12 -28 27 -11 52 23 21 27
25 38 15 44 -10 6 -10 12 -2 28 15 28 14 32 -6 32 -13 0 -23 -16 -36 -58z"/>
<path d="M20525 15060 c-3 -5 -1 -10 4 -10 6 0 11 5 11 10 0 6 -2 10 -4 10 -3
0 -8 -4 -11 -10z"/>
<path d="M20480 15010 c0 -5 5 -10 11 -10 5 0 7 -5 3 -12 -4 -7 -3 -8 4 -4 6
4 9 13 5 21 -6 17 -23 20 -23 5z"/>
<path d="M20017 14998 c-31 -17 -20 -34 18 -30 44 5 45 -4 1 -22 -35 -15 -53
-46 -39 -68 4 -7 8 -24 8 -37 0 -13 6 -26 13 -28 6 -3 12 2 12 11 0 20 29 21
36 1 4 -8 12 -15 20 -15 8 0 14 7 14 15 0 8 9 15 20 15 11 0 20 -7 20 -15 0
-8 5 -15 10 -15 6 0 10 6 10 14 0 8 6 17 13 19 6 3 -15 6 -48 6 -38 1 -55 4
-46 10 7 5 21 6 31 4 26 -7 55 42 56 95 l2 44 -37 -6 c-21 -3 -51 -2 -68 3
-17 5 -37 5 -46 -1z m107 -55 c-9 -37 -11 -38 -29 -23 -14 12 -14 15 2 31 26
26 34 23 27 -8z m-54 -48 c0 -8 -7 -15 -16 -15 -14 0 -14 3 -4 15 7 8 14 15
16 15 2 0 4 -7 4 -15z"/>
<path d="M20428 14966 c-10 -7 -18 -17 -18 -22 0 -4 5 -3 12 4 18 18 31 15 23
-5 -5 -14 -3 -15 5 -6 8 7 9 17 4 26 -8 13 -12 13 -26 3z"/>
<path d="M20316 14903 c-31 -8 -83 -43 -64 -43 9 0 18 -6 21 -12 7 -21 72 15
74 41 1 11 -1 20 -5 20 -4 -1 -16 -4 -26 -6z m9 -33 c-3 -5 -13 -10 -21 -10
-8 0 -12 5 -9 10 3 6 13 10 21 10 8 0 12 -4 9 -10z"/>
<path d="M20199 14847 c6 -8 8 -17 4 -20 -3 -4 1 -7 10 -7 10 0 15 8 14 20 -1
12 -8 20 -20 20 -15 0 -17 -3 -8 -13z"/>
<path d="M16033 12373 c-3 -10 -8 -21 -10 -25 -2 -5 0 -8 5 -8 5 0 12 11 14
25 6 29 0 33 -9 8z"/>
<path d="M15939 12309 c-6 -31 -6 -40 3 -46 6 -3 8 -1 4 5 -3 6 1 12 10 14 16
3 16 4 1 17 -10 7 -17 12 -18 10z"/>
<path d="M15970 12230 c0 -5 4 -10 9 -10 6 0 13 5 16 10 3 6 -1 10 -9 10 -9 0
-16 -4 -16 -10z"/>
<path d="M15935 12170 c-3 -5 -1 -10 4 -10 6 0 11 5 11 10 0 6 -2 10 -4 10 -3
0 -8 -4 -11 -10z"/>
<path d="M15990 12155 c0 -8 2 -15 4 -15 2 0 6 7 10 15 3 8 1 15 -4 15 -6 0
-10 -7 -10 -15z"/>
<path d="M16050 12130 c0 -5 7 -10 15 -10 8 0 15 5 15 10 0 6 -7 10 -15 10 -8
0 -15 -4 -15 -10z"/>
<path d="M16070 12106 c0 -2 8 -10 18 -17 15 -13 16 -12 3 4 -13 16 -21 21
-21 13z"/>
<path d="M15931 12016 c-10 -12 -8 -13 8 -9 12 3 21 9 21 14 0 14 -16 11 -29
-5z"/>
<path d="M16107 11966 c-6 -15 1 -26 15 -26 11 0 10 27 -1 34 -5 3 -11 0 -14
-8z"/>
<path d="M16132 11914 c-7 -8 -8 -14 -3 -14 10 0 25 19 20 25 -2 1 -10 -3 -17
-11z"/>
<path d="M16120 11880 c0 -5 5 -10 11 -10 5 0 7 5 4 10 -3 6 -8 10 -11 10 -2
0 -4 -4 -4 -10z"/>
<path d="M15997 11823 c-11 -11 -8 -20 7 -20 8 0 12 6 9 14 -6 15 -7 15 -16 6z"/>
<path d="M16126 11821 c-4 -5 -3 -17 0 -26 5 -13 8 -14 15 -3 5 7 9 19 9 26 0
14 -16 16 -24 3z"/>
<path d="M16165 11771 c-3 -5 -2 -12 3 -15 5 -3 9 1 9 9 0 17 -3 19 -12 6z"/>
<path d="M16000 11510 c-13 -8 -12 -10 3 -10 9 0 17 5 17 10 0 12 -1 12 -20 0z"/>
<path d="M16418 8807 c-5 -24 -3 -27 15 -21 13 4 17 2 13 -5 -4 -7 -1 -9 7 -5
9 3 13 13 10 25 -3 11 -11 18 -19 15 -7 -3 -15 0 -17 7 -2 7 -6 0 -9 -16z"/>
<path d="M16666 8783 c-6 -14 -5 -15 5 -6 7 7 10 15 7 18 -3 3 -9 -2 -12 -12z"/>
<path d="M16625 8780 c3 -5 8 -10 11 -10 2 0 4 5 4 10 0 6 -5 10 -11 10 -5 0
-7 -4 -4 -10z"/>
<path d="M17445 8710 c-3 -5 -1 -10 4 -10 6 0 11 5 11 10 0 6 -2 10 -4 10 -3
0 -8 -4 -11 -10z"/>
<path d="M17516 8598 c-9 -36 -7 -41 9 -24 16 16 20 46 6 46 -5 0 -11 -10 -15
-22z"/>
</g>
</svg>
