<?xml version="1.0" encoding="UTF-8"?>
<svg width="436px" height="243px" viewBox="0 0 436 243" version="1.1" xmlns="http://www.w3.org/2000/svg" xmlns:xlink="http://www.w3.org/1999/xlink">
    <title>Group</title>
    <defs>
        <rect id="path-1" x="0" y="0" width="435" height="243"></rect>
        <polygon id="path-3" points="0 72 72 72 72 0 0 0"></polygon>
        <polygon id="path-5" points="0 72 72 72 72 0 0 0"></polygon>
        <polygon id="path-7" points="0 72 72 72 72 0 0 0"></polygon>
        <polygon id="path-9" points="0 72 72 72 72 0 0 0"></polygon>
    </defs>
    <g id="Contact-Us-page" stroke="none" stroke-width="1" fill="none" fill-rule="evenodd">
        <g id="Contact-Us-Page_By-User-Type-R2-Marketing-Icons" transform="translate(-805.000000, -709.000000)">
            <g id="Lets-get-in-Touch-Brick" transform="translate(165.000000, 664.000000)">
                <g id="Group" transform="translate(640.333333, 45.000000)">
                    <mask id="mask-2" fill="white">
                        <use xlink:href="#path-1"></use>
                    </mask>
                    <g id="Rectangle"></g>
                    <line x1="87.6666667" y1="134" x2="46.1666667" y2="181.5" id="Line-2" stroke="#E1DED3" stroke-width="3" stroke-linecap="round" stroke-linejoin="round" stroke-dasharray="0,9" mask="url(#mask-2)"></line>
                    <line x1="141.666667" y1="134" x2="141.666667" y2="156" id="Line-2" stroke="#E1DED3" stroke-width="3" stroke-linecap="round" stroke-linejoin="round" stroke-dasharray="0,9" mask="url(#mask-2)"></line>
                    <line x1="190.666667" y1="134" x2="222.166667" y2="181.5" id="Line-2" stroke="#E1DED3" stroke-width="3" stroke-linecap="round" stroke-linejoin="round" stroke-dasharray="0,9" mask="url(#mask-2)"></line>
                    <line x1="253.666667" y1="125" x2="363.666667" y2="178" id="Line-2" stroke="#E1DED3" stroke-width="3" stroke-linecap="round" stroke-linejoin="round" stroke-dasharray="0,9" mask="url(#mask-2)"></line>
                    <line x1="253.666667" y1="91" x2="316.666667" y2="101" id="Line-2" stroke="#E1DED3" stroke-width="3" stroke-linecap="round" stroke-linejoin="round" stroke-dasharray="0,9" mask="url(#mask-2)"></line>
                    <line x1="253.666667" y1="58" x2="371.666667" y2="37" id="Line-2" stroke="#E1DED3" stroke-width="3" stroke-linecap="round" stroke-linejoin="round" stroke-dasharray="0,9" mask="url(#mask-2)"></line>
                    <g mask="url(#mask-2)" id="Iconography/MarketingIcons/DoctorVisit-Copy">
                        <g transform="translate(307.666667, 67.000000)">
                            <g id="Group-616" transform="translate(17.500000, 16.000000)" fill="#FFA700">
                                <path d="M30.4881,39.8283 L6.5121,39.8283 C3.1831,39.8283 0.4746,37.1198 0.4746,33.7908 L0.4746,9.8148 C0.4746,6.4853 3.1831,3.7768 6.5121,3.7768 L13.6701,3.7768 C14.2581,3.7768 14.7351,4.2543 14.7351,4.8418 C14.7351,5.4298 14.2581,5.9068 13.6701,5.9068 L6.5121,5.9068 C4.3571,5.9068 2.6041,7.6598 2.6041,9.8148 L2.6041,33.7908 C2.6041,35.9453 4.3571,37.6983 6.5121,37.6983 L30.4881,37.6983 C32.6431,37.6983 34.3956,35.9453 34.3956,33.7908 L34.3956,9.8148 C34.3956,7.6598 32.6431,5.9068 30.4881,5.9068 L27.4481,5.9068 C26.8601,5.9068 26.3831,5.4298 26.3831,4.8418 C26.3831,4.2543 26.8601,3.7768 27.4481,3.7768 L30.4881,3.7768 C33.8171,3.7768 36.5256,6.4853 36.5256,9.8148 L36.5256,33.7908 C36.5256,37.1198 33.8171,39.8283 30.4881,39.8283" id="Fill-596"></path>
                                <path d="M12.19755,32.2795 L8.83605,32.2795 C8.47905,32.2795 8.18805,31.9895 8.18805,31.6315 L8.18805,28.2705 C8.18805,27.913 8.47905,27.623 8.83605,27.623 L12.19755,27.623 C12.55555,27.623 12.84555,27.913 12.84555,28.2705 L12.84555,31.6315 C12.84555,31.9895 12.55555,32.2795 12.19755,32.2795" id="Fill-598"></path>
                                <path d="M20.1805,32.2795 L16.8195,32.2795 C16.462,32.2795 16.1715,31.9895 16.1715,31.6315 L16.1715,28.2705 C16.1715,27.913 16.462,27.623 16.8195,27.623 L20.1805,27.623 C20.5385,27.623 20.8285,27.913 20.8285,28.2705 L20.8285,31.6315 C20.8285,31.9895 20.5385,32.2795 20.1805,32.2795" id="Fill-600"></path>
                                <path d="M12.19755,25.01485 L8.83605,25.01485 C8.47905,25.01485 8.18805,24.72435 8.18805,24.36685 L8.18805,21.00535 C8.18805,20.64835 8.47905,20.35785 8.83605,20.35785 L12.19755,20.35785 C12.55555,20.35785 12.84555,20.64835 12.84555,21.00535 L12.84555,24.36685 C12.84555,24.72435 12.55555,25.01485 12.19755,25.01485" id="Fill-602"></path>
                                <path d="M20.1805,25.01485 L16.8195,25.01485 C16.462,25.01485 16.1715,24.72435 16.1715,24.36685 L16.1715,21.00535 C16.1715,20.64835 16.462,20.35785 16.8195,20.35785 L20.1805,20.35785 C20.5385,20.35785 20.8285,20.64835 20.8285,21.00535 L20.8285,24.36685 C20.8285,24.72435 20.5385,25.01485 20.1805,25.01485" id="Fill-604"></path>
                                <path d="M28.1634,25.01485 L24.8024,25.01485 C24.4449,25.01485 24.1544,24.72435 24.1544,24.36685 L24.1544,21.00535 C24.1544,20.64835 24.4449,20.35785 24.8024,20.35785 L28.1634,20.35785 C28.5214,20.35785 28.8114,20.64835 28.8114,21.00535 L28.8114,24.36685 C28.8114,24.72435 28.5214,25.01485 28.1634,25.01485" id="Fill-606"></path>
                                <path d="M28.1634,17.4694 L24.8024,17.4694 C24.4449,17.4694 24.1544,17.1794 24.1544,16.8214 L24.1544,13.4599 C24.1544,13.1029 24.4449,12.8124 24.8024,12.8124 L28.1634,12.8124 C28.5214,12.8124 28.8114,13.1029 28.8114,13.4599 L28.8114,16.8214 C28.8114,17.1794 28.5214,17.4694 28.1634,17.4694" id="Fill-608"></path>
                                <path d="M23.3299,9.45475 C22.7419,9.45475 22.2649,8.97775 22.2649,8.38975 L22.2649,1.23625 C22.2649,0.64875 22.7419,0.17175 23.3299,0.17175 C23.9179,0.17175 24.3949,0.64875 24.3949,1.23625 L24.3949,8.38975 C24.3949,8.97775 23.9179,9.45475 23.3299,9.45475" id="Fill-610"></path>
                                <path d="M13.67025,9.45475 C13.08225,9.45475 12.60525,8.97775 12.60525,8.38975 L12.60525,1.23625 C12.60525,0.64875 13.08225,0.17175 13.67025,0.17175 C14.25825,0.17175 14.73525,0.64875 14.73525,1.23625 L14.73525,8.38975 C14.73525,8.97775 14.25825,9.45475 13.67025,9.45475" id="Fill-612"></path>
                                <path d="M22.5628,5.9069 L17.7843,5.9069 C17.1968,5.9069 16.7193,5.4299 16.7193,4.8419 C16.7193,4.2539 17.1968,3.7769 17.7843,3.7769 L22.5628,3.7769 C23.1508,3.7769 23.6278,4.2539 23.6278,4.8419 C23.6278,5.4299 23.1508,5.9069 22.5628,5.9069" id="Fill-614"></path>
                            </g>
                        </g>
                    </g>
                    <g mask="url(#mask-2)" id="Iconography/MarketingIcons/DoctorVisit-Copy-5">
                        <g transform="translate(365.666667, -3.000000)">
                            <g id="Group-528" transform="translate(13.500000, 14.000000)" fill="#FFA700">
                                <path d="M40.6587,35.7111 L4.3412,35.7111 C2.1282,35.7111 0.3277,33.9101 0.3277,31.6971 L0.3277,6.8166 C0.3277,4.6036 2.1282,2.8031 4.3412,2.8031 L17.0447,2.8031 C17.6327,2.8031 18.1097,3.2801 18.1097,3.8676 C18.1097,4.4556 17.6327,4.9326 17.0447,4.9326 L4.3412,4.9326 C3.3027,4.9326 2.4577,5.7781 2.4577,6.8166 L2.4577,31.6971 C2.4577,32.7361 3.3027,33.5811 4.3412,33.5811 L40.6587,33.5811 C41.6972,33.5811 42.5427,32.7361 42.5427,31.6971 L42.5427,6.8166 C42.5427,5.7781 41.6972,4.9326 40.6587,4.9326 L32.7712,4.9326 C32.1832,4.9326 31.7062,4.4556 31.7062,3.8676 C31.7062,3.2801 32.1832,2.8031 32.7712,2.8031 L40.6587,2.8031 C42.8717,2.8031 44.6722,4.6036 44.6722,6.8166 L44.6722,31.6971 C44.6722,33.9101 42.8717,35.7111 40.6587,35.7111" id="Fill-514"></path>
                                <path d="M7.80715,30.41085 C7.74865,30.41085 7.68965,30.40585 7.63015,30.39635 C7.05015,30.29885 6.65865,29.75085 6.75515,29.17085 L7.47415,24.86835 C7.84115,22.66835 9.27615,20.81035 11.31265,19.89885 L17.50815,17.12285 C18.04615,16.88185 18.67465,17.12285 18.91565,17.65885 C19.15565,18.19585 18.91615,18.82585 18.37965,19.06635 L12.18315,21.84185 C10.79915,22.46185 9.82415,23.72385 9.57465,25.21885 L8.85615,29.52135 C8.76915,30.04235 8.31765,30.41085 7.80715,30.41085" id="Fill-516"></path>
                                <path d="M37.1377,30.41085 C36.6272,30.41085 36.1757,30.04235 36.0887,29.52135 L35.3702,25.21885 C35.1207,23.72385 34.1462,22.46185 32.7627,21.84185 L26.5657,19.06635 C26.0287,18.82585 25.7892,18.19585 26.0292,17.65935 C26.2702,17.12235 26.9002,16.88185 27.4362,17.12285 L33.6327,19.89885 C35.6687,20.81035 37.1037,22.66835 37.4707,24.86835 L38.1897,29.17085 C38.2862,29.75085 37.8947,30.29885 37.3147,30.39635 C37.2552,30.40585 37.1962,30.41085 37.1377,30.41085" id="Fill-518"></path>
                                <path d="M21.9038,2.2365 C19.3333,2.2365 17.2423,4.328 17.2423,6.898 L17.2423,11.0145 C17.2423,12.3695 17.7628,13.652 18.7078,14.626 L19.0088,14.936 L19.0088,19.754 C19.0088,19.98 19.1428,20.185 19.3498,20.276 C21.3658,21.16 23.6278,21.155 25.5983,20.28 C25.8033,20.1885 25.9358,19.9845 25.9358,19.7595 L25.9358,14.8595 L26.2228,14.553 C27.1228,13.5885 27.6188,12.3315 27.6188,11.0145 L27.6188,6.898 C27.6188,4.328 25.5273,2.2365 22.9568,2.2365 L21.9038,2.2365 Z M22.4778,23.0695 C21.1333,23.0695 19.7893,22.7945 18.5353,22.2445 C17.5128,21.7955 16.8788,20.8255 16.8788,19.754 L16.8788,15.7805 C15.7368,14.4535 15.1123,12.7775 15.1123,11.0145 L15.1123,6.898 C15.1123,3.1535 18.1593,0.1065 21.9038,0.1065 L22.9568,0.1065 C26.7018,0.1065 29.7483,3.1535 29.7483,6.898 L29.7483,11.0145 C29.7483,12.728 29.1538,14.3695 28.0658,15.681 L28.0658,19.7595 C28.0658,20.8255 27.4363,21.7935 26.4623,22.226 C25.1973,22.7885 23.8378,23.0695 22.4778,23.0695 L22.4778,23.0695 Z" id="Fill-520"></path>
                                <path d="M16.8291,43.89375 C16.7511,43.89375 16.6716,43.88475 16.5921,43.86675 C16.0186,43.73725 15.6596,43.16625 15.7901,42.59275 L17.6496,34.41025 C17.7791,33.83725 18.3526,33.47725 18.9231,33.60825 C19.4971,33.73775 19.8561,34.30875 19.7256,34.88225 L17.8661,43.06475 C17.7546,43.55875 17.3156,43.89375 16.8291,43.89375" id="Fill-522"></path>
                                <path d="M27.9302,43.89375 C27.4437,43.89375 27.0052,43.55875 26.8932,43.06475 L25.0332,34.88225 C24.9027,34.30875 25.2617,33.73775 25.8357,33.60825 C26.4062,33.47675 26.9792,33.83725 27.1092,34.41025 L28.9692,42.59275 C29.0997,43.16625 28.7407,43.73725 28.1672,43.86675 C28.0877,43.88475 28.0082,43.89375 27.9302,43.89375" id="Fill-524"></path>
                                <path d="M32.07035,43.89375 L12.11035,43.89375 C11.52235,43.89375 11.04535,43.41675 11.04535,42.82875 C11.04535,42.24075 11.52235,41.76375 12.11035,41.76375 L32.07035,41.76375 C32.65835,41.76375 33.13535,42.24075 33.13535,42.82875 C33.13535,43.41675 32.65835,43.89375 32.07035,43.89375" id="Fill-526"></path>
                            </g>
                        </g>
                    </g>
                    <g mask="url(#mask-2)" id="Iconography/MarketingIcons/DoctorVisit-Copy-4">
                        <g transform="translate(356.666667, 148.000000)">
                            <g id="Group-416">
                                <mask id="mask-4" fill="white">
                                    <use xlink:href="#path-3"></use>
                                </mask>
                                <g id="Clip-412"></g>
                            </g>
                            <g id="Group-421" transform="translate(13.000000, 15.000000)" fill="#FFA700">
                                <path d="M41.10365,41.71925 L4.89615,41.71925 C2.20115,41.71925 0.00865,39.52625 0.00865,36.83175 L0.00865,12.72375 C0.00865,10.02875 2.20115,7.83575 4.89615,7.83575 L29.26265,7.83575 L29.26265,3.31625 C29.26265,2.81675 28.85665,2.41025 28.35715,2.41025 L17.64265,2.41025 C17.14315,2.41025 16.73715,2.81675 16.73715,3.31625 L16.73715,5.07625 C16.73715,5.66425 16.25965,6.14075 15.67215,6.14075 C15.08415,6.14075 14.60715,5.66425 14.60715,5.07625 L14.60715,3.31625 C14.60715,1.64225 15.96865,0.28075 17.64265,0.28075 L28.35715,0.28075 C30.03065,0.28075 31.39265,1.64225 31.39265,3.31625 L31.39265,8.90075 C31.39265,9.48875 30.91565,9.96525 30.32765,9.96525 L4.89615,9.96525 C3.37565,9.96525 2.13815,11.20275 2.13815,12.72375 L2.13815,36.83175 C2.13815,38.35225 3.37565,39.58925 4.89615,39.58925 L41.10365,39.58925 C42.62465,39.58925 43.86215,38.35225 43.86215,36.83175 L43.86215,12.72375 C43.86215,11.20275 42.62465,9.96525 41.10365,9.96525 L34.89565,9.96525 C34.30765,9.96525 33.83065,9.48875 33.83065,8.90075 C33.83065,8.31275 34.30765,7.83575 34.89565,7.83575 L41.10365,7.83575 C43.79915,7.83575 45.99165,10.02875 45.99165,12.72375 L45.99165,36.83175 C45.99165,39.52625 43.79915,41.71925 41.10365,41.71925" id="Fill-417"></path>
                                <path d="M25.5753,15.51905 L20.4248,15.51905 C19.2488,15.51905 18.2948,16.47255 18.2948,17.64855 L18.2948,20.38505 L15.5588,20.38505 C14.3823,20.38505 13.4288,21.33855 13.4288,22.51455 L13.4288,27.66505 C13.4288,28.84155 14.3823,29.79505 15.5588,29.79505 L18.2948,29.79505 L18.2948,32.53105 C18.2948,33.70755 19.2488,34.66105 20.4248,34.66105 L25.5753,34.66105 C26.7518,34.66105 27.7048,33.70755 27.7048,32.53105 L27.7048,29.79505 L30.4413,29.79505 C31.6178,29.79505 32.5708,28.84155 32.5708,27.66505 L32.5708,22.51455 C32.5708,21.33855 31.6178,20.38505 30.4413,20.38505 L27.7048,20.38505 L27.7048,17.64855 C27.7048,16.47255 26.7518,15.51905 25.5753,15.51905 M25.5753,17.64855 L25.5753,22.51455 L30.4413,22.51455 L30.4413,27.66505 L25.5753,27.66505 L25.5753,32.53105 L20.4248,32.53105 L20.4248,27.66505 L15.5588,27.66505 L15.5588,22.51455 L20.4248,22.51455 L20.4248,17.64855 L25.5753,17.64855" id="Fill-419"></path>
                            </g>
                        </g>
                    </g>
                    <g mask="url(#mask-2)" id="Iconography/MarketingIcons/DoctorVisit-Copy-3">
                        <g transform="translate(-7.333333, 164.000000)">
                            <g id="Group-175">
                                <mask id="mask-6" fill="white">
                                    <use xlink:href="#path-5"></use>
                                </mask>
                                <g id="Clip-168"></g>
                            </g>
                            <g id="Group-184" transform="translate(17.000000, 13.000000)" fill="#FFA700">
                                <path d="M19.0005,45.90825 C11.883,45.90825 5.5035,41.94375 2.352,35.56125 C-0.7995,29.17925 -0.069,21.70425 4.2585,16.05325 L14.815,2.26475 C15.874,0.88175 17.4745,0.09175 19.214,0.09175 C19.233,0.09175 19.252,0.09175 19.271,0.09175 C21.032,0.10925 22.6405,0.93375 23.683,2.35325 L25.554,4.89975 C25.9025,5.37375 25.801,6.04025 25.3265,6.38825 C24.8525,6.73675 24.186,6.63475 23.8385,6.16075 L21.9675,3.61375 C21.3245,2.73975 20.3345,2.23225 19.25,2.22125 C19.2385,2.22125 19.226,2.22125 19.215,2.22125 C18.1435,2.22125 17.1575,2.70775 16.5055,3.55925 L5.9485,17.34775 C2.06,22.42675 1.429,28.88325 4.261,34.61825 C7.094,40.35425 12.6035,43.77875 19.0005,43.77875 C25.3265,43.77875 30.809,40.40925 33.6665,34.76475 C36.5235,29.12075 35.993,22.70725 32.248,17.60875 L27.0325,10.50925 C26.6845,10.03525 26.786,9.36875 27.2605,9.02075 C27.7355,8.67275 28.401,8.77475 28.7485,9.24875 L33.964,16.34825 C38.1315,22.02125 38.7455,29.44675 35.5665,35.72675 C32.387,42.00725 26.0395,45.90825 19.0005,45.90825" id="Fill-176"></path>
                                <path d="M24.2847,22.67 L13.7152,22.67 C13.1277,22.67 12.6502,22.1935 12.6502,21.6055 C12.6502,21.017 13.1277,20.5405 13.7152,20.5405 L24.2847,20.5405 C24.8727,20.5405 25.3497,21.017 25.3497,21.6055 C25.3497,22.1935 24.8727,22.67 24.2847,22.67" id="Fill-178"></path>
                                <path d="M19,27.95465 C18.412,27.95465 17.935,27.47815 17.935,26.89015 L17.935,16.32065 C17.935,15.73265 18.412,15.25615 19,15.25615 C19.588,15.25615 20.065,15.73265 20.065,16.32065 L20.065,26.89015 C20.065,27.47815 19.588,27.95465 19,27.95465" id="Fill-180"></path>
                                <path d="M24.2847,33.52055 L13.7152,33.52055 C13.1277,33.52055 12.6502,33.04405 12.6502,32.45605 C12.6502,31.86755 13.1277,31.39105 13.7152,31.39105 L24.2847,31.39105 C24.8727,31.39105 25.3497,31.86755 25.3497,32.45605 C25.3497,33.04405 24.8727,33.52055 24.2847,33.52055" id="Fill-182"></path>
                            </g>
                        </g>
                    </g>
                    <g mask="url(#mask-2)" id="Iconography/MarketingIcons/DoctorVisit-Copy-3">
                        <g transform="translate(205.666667, 174.000000)">
                            <g id="Group-238">
                                <mask id="mask-8" fill="white">
                                    <use xlink:href="#path-7"></use>
                                </mask>
                                <g id="Clip-235"></g>
                            </g>
                            <g id="Group-245" transform="translate(18.000000, 13.500000)" fill="#FFA700">
                                <path d="M18.11585,23.67215 C18.10835,23.67215 18.10135,23.67215 18.09435,23.67215 C17.80135,23.66615 17.52385,23.53965 17.32735,23.32315 L14.20835,19.88565 C13.81335,19.45015 13.84585,18.77665 14.28135,18.38115 C14.71635,17.98565 15.39035,18.01915 15.78535,18.45415 L18.14735,21.05765 L26.41735,12.65815 C26.82985,12.23865 27.50335,12.23415 27.92285,12.64615 C28.34185,13.05865 28.34735,13.73315 27.93485,14.15215 L18.87485,23.35465 C18.67435,23.55765 18.40085,23.67215 18.11585,23.67215" id="Fill-239"></path>
                                <path d="M17.985,31.9854 C16.4735,31.9854 14.969,31.6469 13.5655,30.9744 C8.4695,28.5334 6.309,22.4014 8.75,17.3049 C9.9325,14.8364 12.006,12.9759 14.588,12.0664 C17.169,11.1559 19.951,11.3069 22.42,12.4899 C23.672,13.0894 24.7685,13.9179 25.68,14.9519 C26.0685,15.3929 26.026,16.0659 25.585,16.4544 C25.1425,16.8434 24.4705,16.8009 24.082,16.3594 C23.3615,15.5419 22.493,14.8859 21.5,14.4104 C19.5435,13.4734 17.3395,13.3539 15.2955,14.0749 C13.25,14.7954 11.6075,16.2694 10.671,18.2249 C8.737,22.2619 10.4485,27.1199 14.4855,29.0539 C16.4415,29.9904 18.645,30.1094 20.6895,29.3894 C22.735,28.6689 24.3775,27.1949 25.314,25.2394 C26.0905,23.6189 26.3075,21.8359 25.942,20.0829 C25.822,19.5074 26.1915,18.9434 26.767,18.8234 C27.3445,18.7034 27.9065,19.0729 28.027,19.6484 C28.4885,21.8629 28.2145,24.1139 27.235,26.1594 C26.0525,28.6279 23.979,30.4884 21.3975,31.3979 C20.2835,31.7904 19.132,31.9854 17.985,31.9854" id="Fill-241"></path>
                                <path d="M4.94395,2.42925 C3.49095,2.42925 2.30895,3.64325 2.30895,5.13525 L2.30895,26.55725 C2.30895,35.38725 9.34795,42.57075 17.99945,42.57075 C26.65145,42.57075 33.69045,35.38725 33.69045,26.55725 L33.69045,5.13525 C33.69045,3.64325 32.50895,2.42925 31.05595,2.42925 L4.94395,2.42925 Z M17.99945,44.70025 C8.17345,44.70025 0.17945,36.56175 0.17945,26.55725 L0.17945,5.13525 C0.17945,2.46875 2.31695,0.29975 4.94395,0.29975 L31.05595,0.29975 C33.68295,0.29975 35.82045,2.46875 35.82045,5.13525 L35.82045,26.55725 C35.82045,36.56175 27.82595,44.70025 17.99945,44.70025 L17.99945,44.70025 Z" id="Fill-243"></path>
                            </g>
                        </g>
                    </g>
                    <g mask="url(#mask-2)" id="Iconography/MarketingIcons/DoctorVisit-Copy-6">
                        <g transform="translate(105.666667, 149.000000)">
                            <g id="Group-148">
                                <mask id="mask-10" fill="white">
                                    <use xlink:href="#path-9"></use>
                                </mask>
                                <g id="Clip-143"></g>
                            </g>
                            <g id="Group-163" transform="translate(14.000000, 14.500000)" fill="#FFA700">
                                <path d="M35.2217,13.354 C32.4587,13.354 30.2107,15.602 30.2107,18.365 C30.2107,21.1285 32.4587,23.3765 35.2217,23.3765 C37.9847,23.3765 40.2322,21.1285 40.2322,18.365 C40.2322,15.602 37.9847,13.354 35.2217,13.354 M35.2217,24.974 C31.5777,24.974 28.6127,22.0095 28.6127,18.365 C28.6127,14.7215 31.5777,11.757 35.2217,11.757 C38.8652,11.757 41.8302,14.7215 41.8302,18.365 C41.8302,22.0095 38.8652,24.974 35.2217,24.974" id="Fill-149"></path>
                                <path d="M17.7007,3.136 C16.1602,3.136 14.9072,4.389 14.9072,5.9295 C14.9072,7.4695 16.1602,8.7225 17.7007,8.7225 C19.2407,8.7225 20.4937,7.4695 20.4937,5.9295 C20.4937,4.389 19.2407,3.136 17.7007,3.136 M17.7007,11.385 C14.6922,11.385 12.2452,8.9375 12.2452,5.9295 C12.2452,2.9215 14.6922,0.474 17.7007,0.474 C20.7087,0.474 23.1557,2.9215 23.1557,5.9295 C23.1557,8.9375 20.7087,11.385 17.7007,11.385" id="Fill-151"></path>
                                <path d="M25.59765,34.76635 C23.98365,34.76635 22.67065,36.07885 22.67065,37.69285 C22.67065,39.30635 23.98365,40.61935 25.59765,40.61935 C27.21115,40.61935 28.52415,39.30635 28.52415,37.69285 C28.52415,36.07885 27.21115,34.76635 25.59765,34.76635 M25.59765,43.01535 C22.66315,43.01535 20.27515,40.62735 20.27515,37.69285 C20.27515,34.75785 22.66315,32.37035 25.59765,32.37035 C28.53215,32.37035 30.91965,34.75785 30.91965,37.69285 C30.91965,40.62735 28.53215,43.01535 25.59765,43.01535" id="Fill-153"></path>
                                <path d="M7.6211,21.7068 C5.2486,21.7068 3.3186,23.6368 3.3186,26.0093 C3.3186,28.3818 5.2486,30.3118 7.6211,30.3118 C9.9936,30.3118 11.9241,28.3818 11.9241,26.0093 C11.9241,23.6368 9.9936,21.7068 7.6211,21.7068 M7.6211,33.2403 C3.6341,33.2403 0.3906,29.9963 0.3906,26.0093 C0.3906,22.0223 3.6341,18.7788 7.6211,18.7788 C11.6086,18.7788 14.8521,22.0223 14.8521,26.0093 C14.8521,29.9963 11.6086,33.2403 7.6211,33.2403" id="Fill-155"></path>
                                <path d="M22.07375,35.907 C21.87275,35.907 21.66875,35.85 21.48825,35.7305 L12.17575,29.5865 C11.68525,29.2625 11.54975,28.6025 11.87375,28.1115 C12.19675,27.6205 12.85725,27.485 13.34875,27.809 L22.66125,33.9535 C23.15175,34.277 23.28725,34.9375 22.96325,35.4285 C22.75875,35.739 22.41925,35.907 22.07375,35.907" id="Fill-157"></path>
                                <path d="M13.2095,25.65625 C12.7395,25.65625 12.309,25.34275 12.1815,24.86725 C12.0295,24.29925 12.366,23.71525 12.934,23.56275 L29.136,19.21425 C29.7035,19.06025 30.2875,19.39875 30.44,19.96675 C30.5925,20.53475 30.2555,21.11875 29.6875,21.27075 L13.486,25.61975 C13.3935,25.64475 13.301,25.65625 13.2095,25.65625" id="Fill-159"></path>
                                <path d="M30.0762,16.1328 C29.8627,16.1328 29.6472,16.0688 29.4597,15.9353 L24.0872,12.1103 C23.6082,11.7688 23.4967,11.1038 23.8377,10.6248 C24.1782,10.1458 24.8422,10.0338 25.3227,10.3753 L30.6947,14.2003 C31.1737,14.5413 31.2857,15.2063 30.9442,15.6853 C30.7367,15.9773 30.4092,16.1328 30.0762,16.1328" id="Fill-161"></path>
                            </g>
                        </g>
                    </g>
                    <rect id="Rectangle" fill="#FFA700" mask="url(#mask-2)" x="21.6666667" y="25" width="219" height="96" rx="10"></rect>
                    <g id="24/7" mask="url(#mask-2)" fill="#FFFFFF" fill-rule="nonzero">
                        <g transform="translate(44.960000, 40.800000)">
                            <path d="M40.72,59.2 L1.2,59.2 L1.2,48.24 L18.4,33.52 C19.9466667,32.1866667 21.2533333,30.9733333 22.32,29.88 C23.3866667,28.7866667 24.2533333,27.72 24.92,26.68 C25.5866667,25.64 26.0666667,24.6133333 26.36,23.6 C26.6533333,22.5866667 26.8,21.4933333 26.8,20.32 L26.8,19.2 C26.8,18.1333333 26.5866667,17.2 26.16,16.4 C25.7333333,15.6 25.1733333,14.9333333 24.48,14.4 C23.7866667,13.8666667 23,13.4666667 22.12,13.2 C21.24,12.9333333 20.3466667,12.8 19.44,12.8 C18.1066667,12.8 16.9466667,13.0133333 15.96,13.44 C14.9733333,13.8666667 14.12,14.44 13.4,15.16 C12.68,15.88 12.08,16.7066667 11.6,17.64 C11.12,18.5733333 10.7466667,19.5733333 10.48,20.64 L0,16.64 C0.64,14.72 1.52,12.8933333 2.64,11.16 C3.76,9.42666667 5.16,7.90666667 6.84,6.6 C8.52,5.29333333 10.5066667,4.26666667 12.8,3.52 C15.0933333,2.77333333 17.68,2.4 20.56,2.4 C23.6,2.4 26.2933333,2.82666667 28.64,3.68 C30.9866667,4.53333333 32.9733333,5.70666667 34.6,7.2 C36.2266667,8.69333333 37.4666667,10.4666667 38.32,12.52 C39.1733333,14.5733333 39.6,16.8 39.6,19.2 C39.6,21.6 39.2,23.7866667 38.4,25.76 C37.6,27.7333333 36.52,29.5866667 35.16,31.32 C33.8,33.0533333 32.2133333,34.6933333 30.4,36.24 C28.5866667,37.7866667 26.6933333,39.36 24.72,40.96 L14.32,49.12 L40.72,49.12 L40.72,59.2 Z" id="Path"></path>
                            <path d="M71.6,59.2 L71.6,48.48 L47.04,48.48 L47.04,38.24 L68.8,3.36 L83.04,3.36 L83.04,39.2 L90.08,39.2 L90.08,48.48 L83.04,48.48 L83.04,59.2 L71.6,59.2 Z M56.64,39.2 L71.6,39.2 L71.6,15.76 L70.8,15.76 L56.64,39.2 Z" id="Shape"></path>
                            <polygon id="Path" points="92.88 71.28 116.72 0 126.48 0 102.64 71.28"></polygon>
                            <polygon id="Path" points="142.72 59.2 161.44 13.12 144 13.12 144 23.28 133.84 23.28 133.84 3.36 173.36 3.36 173.36 13.76 155.36 59.2"></polygon>
                        </g>
                    </g>
                </g>
            </g>
        </g>
    </g>
</svg>